%TF.GenerationSoftware,KiCad,Pcbnew,9.0.2*%
%TF.CreationDate,2025-10-26T22:21:03-05:00*%
%TF.ProjectId,capy_bara,63617079-5f62-4617-9261-2e6b69636164,rev?*%
%TF.SameCoordinates,Original*%
%TF.FileFunction,Paste,Top*%
%TF.FilePolarity,Positive*%
%FSLAX46Y46*%
G04 Gerber Fmt 4.6, Leading zero omitted, Abs format (unit mm)*
G04 Created by KiCad (PCBNEW 9.0.2) date 2025-10-26 22:21:03*
%MOMM*%
%LPD*%
G01*
G04 APERTURE LIST*
G04 Aperture macros list*
%AMRoundRect*
0 Rectangle with rounded corners*
0 $1 Rounding radius*
0 $2 $3 $4 $5 $6 $7 $8 $9 X,Y pos of 4 corners*
0 Add a 4 corners polygon primitive as box body*
4,1,4,$2,$3,$4,$5,$6,$7,$8,$9,$2,$3,0*
0 Add four circle primitives for the rounded corners*
1,1,$1+$1,$2,$3*
1,1,$1+$1,$4,$5*
1,1,$1+$1,$6,$7*
1,1,$1+$1,$8,$9*
0 Add four rect primitives between the rounded corners*
20,1,$1+$1,$2,$3,$4,$5,0*
20,1,$1+$1,$4,$5,$6,$7,0*
20,1,$1+$1,$6,$7,$8,$9,0*
20,1,$1+$1,$8,$9,$2,$3,0*%
G04 Aperture macros list end*
%ADD10RoundRect,0.237500X-0.287500X-0.237500X0.287500X-0.237500X0.287500X0.237500X-0.287500X0.237500X0*%
%ADD11RoundRect,0.237500X0.287500X0.237500X-0.287500X0.237500X-0.287500X-0.237500X0.287500X-0.237500X0*%
%ADD12RoundRect,0.237500X-0.237500X0.250000X-0.237500X-0.250000X0.237500X-0.250000X0.237500X0.250000X0*%
%ADD13RoundRect,0.100000X0.637500X0.100000X-0.637500X0.100000X-0.637500X-0.100000X0.637500X-0.100000X0*%
%ADD14RoundRect,0.237500X-0.250000X-0.237500X0.250000X-0.237500X0.250000X0.237500X-0.250000X0.237500X0*%
%ADD15RoundRect,0.237500X0.250000X0.237500X-0.250000X0.237500X-0.250000X-0.237500X0.250000X-0.237500X0*%
%ADD16RoundRect,0.237500X0.237500X-0.287500X0.237500X0.287500X-0.237500X0.287500X-0.237500X-0.287500X0*%
%ADD17RoundRect,0.237500X0.300000X0.237500X-0.300000X0.237500X-0.300000X-0.237500X0.300000X-0.237500X0*%
%ADD18RoundRect,0.250000X0.337500X0.475000X-0.337500X0.475000X-0.337500X-0.475000X0.337500X-0.475000X0*%
%ADD19RoundRect,0.237500X0.237500X-0.250000X0.237500X0.250000X-0.237500X0.250000X-0.237500X-0.250000X0*%
%ADD20RoundRect,0.250000X-0.475000X0.337500X-0.475000X-0.337500X0.475000X-0.337500X0.475000X0.337500X0*%
%ADD21RoundRect,0.237500X-0.237500X0.300000X-0.237500X-0.300000X0.237500X-0.300000X0.237500X0.300000X0*%
%ADD22RoundRect,0.237500X-0.237500X0.287500X-0.237500X-0.287500X0.237500X-0.287500X0.237500X0.287500X0*%
G04 APERTURE END LIST*
D10*
%TO.C,D8*%
X102125000Y-115000000D03*
X103875000Y-115000000D03*
%TD*%
D11*
%TO.C,D3*%
X122875000Y-115000000D03*
X121125000Y-115000000D03*
%TD*%
D12*
%TO.C,R6*%
X117000000Y-102087500D03*
X117000000Y-103912500D03*
%TD*%
%TO.C,R1*%
X113000000Y-121087500D03*
X113000000Y-122912500D03*
%TD*%
D13*
%TO.C,STM32*%
X117862500Y-117925000D03*
X117862500Y-117275000D03*
X117862500Y-116625000D03*
X117862500Y-115975000D03*
X117862500Y-115325000D03*
X117862500Y-114675000D03*
X117862500Y-114025000D03*
X117862500Y-113375000D03*
X117862500Y-112725000D03*
X117862500Y-112075000D03*
X112137500Y-112075000D03*
X112137500Y-112725000D03*
X112137500Y-113375000D03*
X112137500Y-114025000D03*
X112137500Y-114675000D03*
X112137500Y-115325000D03*
X112137500Y-115975000D03*
X112137500Y-116625000D03*
X112137500Y-117275000D03*
X112137500Y-117925000D03*
%TD*%
D14*
%TO.C,R7*%
X107087500Y-117000000D03*
X108912500Y-117000000D03*
%TD*%
D12*
%TO.C,R9*%
X118000000Y-121087500D03*
X118000000Y-122912500D03*
%TD*%
%TO.C,R5*%
X117000000Y-107087500D03*
X117000000Y-108912500D03*
%TD*%
D10*
%TO.C,D7*%
X107125000Y-115000000D03*
X108875000Y-115000000D03*
%TD*%
D15*
%TO.C,R10*%
X122912500Y-118000000D03*
X121087500Y-118000000D03*
%TD*%
D11*
%TO.C,D4*%
X127875000Y-115000000D03*
X126125000Y-115000000D03*
%TD*%
D16*
%TO.C,D2*%
X115000000Y-127875000D03*
X115000000Y-126125000D03*
%TD*%
D17*
%TO.C,C3*%
X122000000Y-108000000D03*
X120275000Y-108000000D03*
%TD*%
D14*
%TO.C,R11*%
X126087500Y-118000000D03*
X127912500Y-118000000D03*
%TD*%
D15*
%TO.C,R4*%
X127912500Y-112500000D03*
X126087500Y-112500000D03*
%TD*%
D18*
%TO.C,C4*%
X122037500Y-103000000D03*
X119962500Y-103000000D03*
%TD*%
D16*
%TO.C,D1*%
X115000000Y-122875000D03*
X115000000Y-121125000D03*
%TD*%
D19*
%TO.C,R2*%
X113000000Y-127912500D03*
X113000000Y-126087500D03*
%TD*%
D20*
%TO.C,C2*%
X103000000Y-119962500D03*
X103000000Y-122037500D03*
%TD*%
D14*
%TO.C,R8*%
X102087500Y-117000000D03*
X103912500Y-117000000D03*
%TD*%
D21*
%TO.C,C1*%
X108000000Y-120137500D03*
X108000000Y-121862500D03*
%TD*%
D22*
%TO.C,D5*%
X115000000Y-107125000D03*
X115000000Y-108875000D03*
%TD*%
D15*
%TO.C,R3*%
X122912500Y-112500000D03*
X121087500Y-112500000D03*
%TD*%
D22*
%TO.C,D6*%
X115000000Y-102125000D03*
X115000000Y-103875000D03*
%TD*%
M02*
