%TF.GenerationSoftware,KiCad,Pcbnew,9.0.2*%
%TF.CreationDate,2025-10-26T22:21:03-05:00*%
%TF.ProjectId,capy_bara,63617079-5f62-4617-9261-2e6b69636164,rev?*%
%TF.SameCoordinates,Original*%
%TF.FileFunction,Legend,Bot*%
%TF.FilePolarity,Positive*%
%FSLAX46Y46*%
G04 Gerber Fmt 4.6, Leading zero omitted, Abs format (unit mm)*
G04 Created by KiCad (PCBNEW 9.0.2) date 2025-10-26 22:21:03*
%MOMM*%
%LPD*%
G01*
G04 APERTURE LIST*
%ADD10C,0.100000*%
G04 APERTURE END LIST*
D10*
X119223503Y-115961382D02*
X119290847Y-115961382D01*
X119290847Y-115961382D02*
X119425534Y-115894039D01*
X119425534Y-115894039D02*
X119492877Y-115826695D01*
X119492877Y-115826695D02*
X119560221Y-115692008D01*
X119560221Y-115692008D02*
X119560221Y-115557321D01*
X119560221Y-115557321D02*
X119526549Y-115456306D01*
X119526549Y-115456306D02*
X119425534Y-115287947D01*
X119425534Y-115287947D02*
X119324518Y-115186932D01*
X119324518Y-115186932D02*
X119156160Y-115085917D01*
X119156160Y-115085917D02*
X119055144Y-115052245D01*
X119055144Y-115052245D02*
X118920457Y-115052245D01*
X118920457Y-115052245D02*
X118785770Y-115119588D01*
X118785770Y-115119588D02*
X118718427Y-115186932D01*
X118718427Y-115186932D02*
X118651083Y-115321619D01*
X118651083Y-115321619D02*
X118651083Y-115388962D01*
X118583740Y-116735833D02*
X118482724Y-116163413D01*
X118987801Y-116331772D02*
X118280694Y-115624665D01*
X118280694Y-115624665D02*
X118011320Y-115894039D01*
X118011320Y-115894039D02*
X117977648Y-115995054D01*
X117977648Y-115995054D02*
X117977648Y-116062398D01*
X117977648Y-116062398D02*
X118011320Y-116163413D01*
X118011320Y-116163413D02*
X118112335Y-116264428D01*
X118112335Y-116264428D02*
X118213350Y-116298100D01*
X118213350Y-116298100D02*
X118280694Y-116298100D01*
X118280694Y-116298100D02*
X118381709Y-116264428D01*
X118381709Y-116264428D02*
X118651083Y-115995054D01*
X117674602Y-116365443D02*
X117607259Y-116365443D01*
X117607259Y-116365443D02*
X117506244Y-116399115D01*
X117506244Y-116399115D02*
X117337885Y-116567474D01*
X117337885Y-116567474D02*
X117304213Y-116668489D01*
X117304213Y-116668489D02*
X117304213Y-116735833D01*
X117304213Y-116735833D02*
X117337885Y-116836848D01*
X117337885Y-116836848D02*
X117405228Y-116904191D01*
X117405228Y-116904191D02*
X117539915Y-116971535D01*
X117539915Y-116971535D02*
X118348037Y-116971535D01*
X118348037Y-116971535D02*
X117910305Y-117409268D01*
X116765465Y-117139894D02*
X116698122Y-117207237D01*
X116698122Y-117207237D02*
X116664450Y-117308252D01*
X116664450Y-117308252D02*
X116664450Y-117375596D01*
X116664450Y-117375596D02*
X116698122Y-117476611D01*
X116698122Y-117476611D02*
X116799137Y-117644970D01*
X116799137Y-117644970D02*
X116967496Y-117813329D01*
X116967496Y-117813329D02*
X117135854Y-117914344D01*
X117135854Y-117914344D02*
X117236870Y-117948016D01*
X117236870Y-117948016D02*
X117304213Y-117948016D01*
X117304213Y-117948016D02*
X117405228Y-117914344D01*
X117405228Y-117914344D02*
X117472572Y-117847000D01*
X117472572Y-117847000D02*
X117506244Y-117745985D01*
X117506244Y-117745985D02*
X117506244Y-117678642D01*
X117506244Y-117678642D02*
X117472572Y-117577626D01*
X117472572Y-117577626D02*
X117371557Y-117409268D01*
X117371557Y-117409268D02*
X117203198Y-117240909D01*
X117203198Y-117240909D02*
X117034839Y-117139894D01*
X117034839Y-117139894D02*
X116933824Y-117106222D01*
X116933824Y-117106222D02*
X116866480Y-117106222D01*
X116866480Y-117106222D02*
X116765465Y-117139894D01*
X116294061Y-117611298D02*
X115856328Y-118049031D01*
X115856328Y-118049031D02*
X116361404Y-118082703D01*
X116361404Y-118082703D02*
X116260389Y-118183718D01*
X116260389Y-118183718D02*
X116226717Y-118284733D01*
X116226717Y-118284733D02*
X116226717Y-118352077D01*
X116226717Y-118352077D02*
X116260389Y-118453092D01*
X116260389Y-118453092D02*
X116428748Y-118621451D01*
X116428748Y-118621451D02*
X116529763Y-118655122D01*
X116529763Y-118655122D02*
X116597106Y-118655122D01*
X116597106Y-118655122D02*
X116698122Y-118621451D01*
X116698122Y-118621451D02*
X116900152Y-118419420D01*
X116900152Y-118419420D02*
X116933824Y-118318405D01*
X116933824Y-118318405D02*
X116933824Y-118251061D01*
X115654297Y-118385748D02*
X115586954Y-118385748D01*
X115586954Y-118385748D02*
X115485939Y-118419420D01*
X115485939Y-118419420D02*
X115317580Y-118587779D01*
X115317580Y-118587779D02*
X115283908Y-118688794D01*
X115283908Y-118688794D02*
X115283908Y-118756138D01*
X115283908Y-118756138D02*
X115317580Y-118857153D01*
X115317580Y-118857153D02*
X115384923Y-118924496D01*
X115384923Y-118924496D02*
X115519610Y-118991840D01*
X115519610Y-118991840D02*
X116327732Y-118991840D01*
X116327732Y-118991840D02*
X115890000Y-119429573D01*
%TO.C,U4*%
X102246952Y-116389087D02*
X108610913Y-122753048D01*
X103661165Y-110732233D02*
X102246952Y-116389087D01*
X108610913Y-122753048D02*
X112500000Y-123106602D01*
X110732233Y-103661165D02*
X103661165Y-110732233D01*
X112500000Y-123106602D02*
X123106602Y-112500000D01*
X116389087Y-102246952D02*
X110732233Y-103661165D01*
X122753048Y-108610913D02*
X116389087Y-102246952D01*
X123106602Y-112500000D02*
X122753048Y-108610913D01*
%TD*%
M02*
