%TF.GenerationSoftware,KiCad,Pcbnew,9.0.2*%
%TF.CreationDate,2025-10-26T22:21:03-05:00*%
%TF.ProjectId,capy_bara,63617079-5f62-4617-9261-2e6b69636164,rev?*%
%TF.SameCoordinates,Original*%
%TF.FileFunction,Copper,L1,Top*%
%TF.FilePolarity,Positive*%
%FSLAX46Y46*%
G04 Gerber Fmt 4.6, Leading zero omitted, Abs format (unit mm)*
G04 Created by KiCad (PCBNEW 9.0.2) date 2025-10-26 22:21:03*
%MOMM*%
%LPD*%
G01*
G04 APERTURE LIST*
G04 Aperture macros list*
%AMRoundRect*
0 Rectangle with rounded corners*
0 $1 Rounding radius*
0 $2 $3 $4 $5 $6 $7 $8 $9 X,Y pos of 4 corners*
0 Add a 4 corners polygon primitive as box body*
4,1,4,$2,$3,$4,$5,$6,$7,$8,$9,$2,$3,0*
0 Add four circle primitives for the rounded corners*
1,1,$1+$1,$2,$3*
1,1,$1+$1,$4,$5*
1,1,$1+$1,$6,$7*
1,1,$1+$1,$8,$9*
0 Add four rect primitives between the rounded corners*
20,1,$1+$1,$2,$3,$4,$5,0*
20,1,$1+$1,$4,$5,$6,$7,0*
20,1,$1+$1,$6,$7,$8,$9,0*
20,1,$1+$1,$8,$9,$2,$3,0*%
G04 Aperture macros list end*
%TA.AperFunction,SMDPad,CuDef*%
%ADD10RoundRect,0.237500X-0.287500X-0.237500X0.287500X-0.237500X0.287500X0.237500X-0.287500X0.237500X0*%
%TD*%
%TA.AperFunction,SMDPad,CuDef*%
%ADD11RoundRect,0.237500X0.287500X0.237500X-0.287500X0.237500X-0.287500X-0.237500X0.287500X-0.237500X0*%
%TD*%
%TA.AperFunction,SMDPad,CuDef*%
%ADD12RoundRect,0.237500X-0.237500X0.250000X-0.237500X-0.250000X0.237500X-0.250000X0.237500X0.250000X0*%
%TD*%
%TA.AperFunction,ComponentPad*%
%ADD13RoundRect,0.112500X-0.262500X-0.387500X0.262500X-0.387500X0.262500X0.387500X-0.262500X0.387500X0*%
%TD*%
%TA.AperFunction,ComponentPad*%
%ADD14C,1.500000*%
%TD*%
%TA.AperFunction,SMDPad,CuDef*%
%ADD15RoundRect,0.100000X0.637500X0.100000X-0.637500X0.100000X-0.637500X-0.100000X0.637500X-0.100000X0*%
%TD*%
%TA.AperFunction,SMDPad,CuDef*%
%ADD16RoundRect,0.237500X-0.250000X-0.237500X0.250000X-0.237500X0.250000X0.237500X-0.250000X0.237500X0*%
%TD*%
%TA.AperFunction,SMDPad,CuDef*%
%ADD17RoundRect,0.237500X0.250000X0.237500X-0.250000X0.237500X-0.250000X-0.237500X0.250000X-0.237500X0*%
%TD*%
%TA.AperFunction,SMDPad,CuDef*%
%ADD18RoundRect,0.237500X0.237500X-0.287500X0.237500X0.287500X-0.237500X0.287500X-0.237500X-0.287500X0*%
%TD*%
%TA.AperFunction,SMDPad,CuDef*%
%ADD19RoundRect,0.237500X0.300000X0.237500X-0.300000X0.237500X-0.300000X-0.237500X0.300000X-0.237500X0*%
%TD*%
%TA.AperFunction,SMDPad,CuDef*%
%ADD20RoundRect,0.250000X0.337500X0.475000X-0.337500X0.475000X-0.337500X-0.475000X0.337500X-0.475000X0*%
%TD*%
%TA.AperFunction,SMDPad,CuDef*%
%ADD21RoundRect,0.237500X0.237500X-0.250000X0.237500X0.250000X-0.237500X0.250000X-0.237500X-0.250000X0*%
%TD*%
%TA.AperFunction,SMDPad,CuDef*%
%ADD22RoundRect,0.250000X-0.475000X0.337500X-0.475000X-0.337500X0.475000X-0.337500X0.475000X0.337500X0*%
%TD*%
%TA.AperFunction,SMDPad,CuDef*%
%ADD23RoundRect,0.237500X-0.237500X0.300000X-0.237500X-0.300000X0.237500X-0.300000X0.237500X0.300000X0*%
%TD*%
%TA.AperFunction,SMDPad,CuDef*%
%ADD24RoundRect,0.237500X-0.237500X0.287500X-0.237500X-0.287500X0.237500X-0.287500X0.237500X0.287500X0*%
%TD*%
%TA.AperFunction,ConnectorPad*%
%ADD25C,0.787400*%
%TD*%
%TA.AperFunction,ComponentPad*%
%ADD26C,3.600000*%
%TD*%
%TA.AperFunction,ConnectorPad*%
%ADD27C,5.600000*%
%TD*%
%TA.AperFunction,ViaPad*%
%ADD28C,0.600000*%
%TD*%
%TA.AperFunction,Conductor*%
%ADD29C,0.200000*%
%TD*%
G04 APERTURE END LIST*
D10*
%TO.P,D8,1,K*%
%TO.N,Net-(D8-K)*%
X102125000Y-115000000D03*
%TO.P,D8,2,A*%
%TO.N,Net-(D8-A)*%
X103875000Y-115000000D03*
%TD*%
D11*
%TO.P,D3,1,K*%
%TO.N,Net-(D3-K)*%
X122875000Y-115000000D03*
%TO.P,D3,2,A*%
%TO.N,Net-(D3-A)*%
X121125000Y-115000000D03*
%TD*%
D12*
%TO.P,R6,1*%
%TO.N,Net-(D6-K)*%
X117000000Y-102087500D03*
%TO.P,R6,2*%
%TO.N,GND*%
X117000000Y-103912500D03*
%TD*%
D13*
%TO.P,U6,1*%
%TO.N,Net-(U1-PA9)*%
X121750000Y-123750000D03*
%TO.P,U6,2*%
%TO.N,Net-(R11-Pad1)*%
X128250000Y-123750000D03*
%TO.P,U6,3*%
%TO.N,GND*%
X121750000Y-128250000D03*
%TO.P,U6,4*%
X128250000Y-128250000D03*
%TD*%
D12*
%TO.P,R1,1*%
%TO.N,GND*%
X113000000Y-121087500D03*
%TO.P,R1,2*%
%TO.N,Net-(D1-K)*%
X113000000Y-122912500D03*
%TD*%
D14*
%TO.P,U5,1*%
%TO.N,+3V0*%
X124500000Y-103000000D03*
%TD*%
D15*
%TO.P,STM32,1,BOOT0*%
%TO.N,Net-(U1-BOOT0)*%
X117862500Y-117925000D03*
%TO.P,STM32,2,PF0*%
%TO.N,unconnected-(U1-PF0-Pad2)*%
X117862500Y-117275000D03*
%TO.P,STM32,3,PF1*%
%TO.N,unconnected-(U1-PF1-Pad3)*%
X117862500Y-116625000D03*
%TO.P,STM32,4,NRST*%
%TO.N,Net-(U1-NRST)*%
X117862500Y-115975000D03*
%TO.P,STM32,5,VDDA*%
%TO.N,+3V0*%
X117862500Y-115325000D03*
%TO.P,STM32,6,PA0*%
%TO.N,Net-(D2-A)*%
X117862500Y-114675000D03*
%TO.P,STM32,7,PA1*%
%TO.N,Net-(D1-A)*%
X117862500Y-114025000D03*
%TO.P,STM32,8,PA2*%
%TO.N,Net-(D4-A)*%
X117862500Y-113375000D03*
%TO.P,STM32,9,PA3*%
%TO.N,Net-(D3-A)*%
X117862500Y-112725000D03*
%TO.P,STM32,10,PA4*%
%TO.N,Net-(D5-A)*%
X117862500Y-112075000D03*
%TO.P,STM32,11,PA5*%
%TO.N,Net-(D6-A)*%
X112137500Y-112075000D03*
%TO.P,STM32,12,PA6*%
%TO.N,Net-(D8-A)*%
X112137500Y-112725000D03*
%TO.P,STM32,13,PA7*%
%TO.N,Net-(D7-A)*%
X112137500Y-113375000D03*
%TO.P,STM32,14,PB1*%
%TO.N,unconnected-(U1-PB1-Pad14)*%
X112137500Y-114025000D03*
%TO.P,STM32,15,VSS*%
%TO.N,GND*%
X112137500Y-114675000D03*
%TO.P,STM32,16,VDD*%
%TO.N,+3V0*%
X112137500Y-115325000D03*
%TO.P,STM32,17,PA9*%
%TO.N,Net-(U1-PA9)*%
X112137500Y-115975000D03*
%TO.P,STM32,18,PA10*%
%TO.N,unconnected-(U1-PA10-Pad18)*%
X112137500Y-116625000D03*
%TO.P,STM32,19,PA13*%
%TO.N,Net-(U1-PA13)*%
X112137500Y-117275000D03*
%TO.P,STM32,20,PA14*%
%TO.N,Net-(U1-PA14)*%
X112137500Y-117925000D03*
%TD*%
D16*
%TO.P,R7,1*%
%TO.N,Net-(D7-K)*%
X107087500Y-117000000D03*
%TO.P,R7,2*%
%TO.N,GND*%
X108912500Y-117000000D03*
%TD*%
D12*
%TO.P,R9,1*%
%TO.N,Net-(U1-BOOT0)*%
X118000000Y-121087500D03*
%TO.P,R9,2*%
%TO.N,GND*%
X118000000Y-122912500D03*
%TD*%
%TO.P,R5,1*%
%TO.N,Net-(D5-K)*%
X117000000Y-107087500D03*
%TO.P,R5,2*%
%TO.N,GND*%
X117000000Y-108912500D03*
%TD*%
D10*
%TO.P,D7,1,K*%
%TO.N,Net-(D7-K)*%
X107125000Y-115000000D03*
%TO.P,D7,2,A*%
%TO.N,Net-(D7-A)*%
X108875000Y-115000000D03*
%TD*%
D17*
%TO.P,R10,1*%
%TO.N,+3V0*%
X122912500Y-118000000D03*
%TO.P,R10,2*%
%TO.N,Net-(U1-NRST)*%
X121087500Y-118000000D03*
%TD*%
D11*
%TO.P,D4,1,K*%
%TO.N,Net-(D4-K)*%
X127875000Y-115000000D03*
%TO.P,D4,2,A*%
%TO.N,Net-(D4-A)*%
X126125000Y-115000000D03*
%TD*%
D18*
%TO.P,D2,1,K*%
%TO.N,Net-(D2-K)*%
X115000000Y-127875000D03*
%TO.P,D2,2,A*%
%TO.N,Net-(D2-A)*%
X115000000Y-126125000D03*
%TD*%
D19*
%TO.P,C3,1*%
%TO.N,+3V0*%
X122000000Y-108000000D03*
%TO.P,C3,2*%
%TO.N,GND*%
X120275000Y-108000000D03*
%TD*%
D16*
%TO.P,R11,1*%
%TO.N,Net-(R11-Pad1)*%
X126087500Y-118000000D03*
%TO.P,R11,2*%
%TO.N,+3V0*%
X127912500Y-118000000D03*
%TD*%
D17*
%TO.P,R4,1*%
%TO.N,Net-(D4-K)*%
X127912500Y-112500000D03*
%TO.P,R4,2*%
%TO.N,GND*%
X126087500Y-112500000D03*
%TD*%
D20*
%TO.P,C4,1*%
%TO.N,+3V0*%
X122037500Y-103000000D03*
%TO.P,C4,2*%
%TO.N,GND*%
X119962500Y-103000000D03*
%TD*%
D18*
%TO.P,D1,1,K*%
%TO.N,Net-(D1-K)*%
X115000000Y-122875000D03*
%TO.P,D1,2,A*%
%TO.N,Net-(D1-A)*%
X115000000Y-121125000D03*
%TD*%
D21*
%TO.P,R2,1*%
%TO.N,Net-(D2-K)*%
X113000000Y-127912500D03*
%TO.P,R2,2*%
%TO.N,GND*%
X113000000Y-126087500D03*
%TD*%
D22*
%TO.P,C2,1*%
%TO.N,+3V0*%
X103000000Y-119962500D03*
%TO.P,C2,2*%
%TO.N,GND*%
X103000000Y-122037500D03*
%TD*%
D16*
%TO.P,R8,1*%
%TO.N,Net-(D8-K)*%
X102087500Y-117000000D03*
%TO.P,R8,2*%
%TO.N,GND*%
X103912500Y-117000000D03*
%TD*%
D23*
%TO.P,C1,1*%
%TO.N,+3V0*%
X108000000Y-120137500D03*
%TO.P,C1,2*%
%TO.N,GND*%
X108000000Y-121862500D03*
%TD*%
D24*
%TO.P,D5,1,K*%
%TO.N,Net-(D5-K)*%
X115000000Y-107125000D03*
%TO.P,D5,2,A*%
%TO.N,Net-(D5-A)*%
X115000000Y-108875000D03*
%TD*%
D14*
%TO.P,U3,1*%
%TO.N,GND*%
X124500000Y-121000000D03*
%TD*%
D25*
%TO.P,TC2030,1*%
%TO.N,+3V0*%
X106230000Y-126270000D03*
%TO.P,TC2030,2*%
%TO.N,Net-(U1-PA13)*%
X106230000Y-125000000D03*
%TO.P,TC2030,3*%
%TO.N,Net-(U1-NRST)*%
X107500000Y-126270000D03*
%TO.P,TC2030,4*%
%TO.N,Net-(U1-PA14)*%
X107500000Y-125000000D03*
%TO.P,TC2030,5*%
%TO.N,GND*%
X108770000Y-126270000D03*
%TO.P,TC2030,6*%
%TO.N,unconnected-(J1-Pad6)*%
X108770000Y-125000000D03*
%TD*%
D14*
%TO.P,U2,1*%
%TO.N,+3V0*%
X103000000Y-124500000D03*
%TD*%
D17*
%TO.P,R3,1*%
%TO.N,Net-(D3-K)*%
X122912500Y-112500000D03*
%TO.P,R3,2*%
%TO.N,GND*%
X121087500Y-112500000D03*
%TD*%
D24*
%TO.P,D6,1,K*%
%TO.N,Net-(D6-K)*%
X115000000Y-102125000D03*
%TO.P,D6,2,A*%
%TO.N,Net-(D6-A)*%
X115000000Y-103875000D03*
%TD*%
D26*
%TO.P,H1,1*%
%TO.N,N/C*%
X103500000Y-103500000D03*
D27*
X103500000Y-103500000D03*
%TD*%
D28*
%TO.N,Net-(U1-NRST)*%
X116500000Y-128500000D03*
X106000000Y-127500000D03*
%TO.N,+3V0*%
X105000000Y-127000000D03*
%TO.N,Net-(U1-PA9)*%
X111500000Y-124490410D03*
%TD*%
D29*
%TO.N,Net-(D1-A)*%
X117125001Y-114025000D02*
X117862500Y-114025000D01*
X115375000Y-115775001D02*
X117125001Y-114025000D01*
X115000000Y-121125000D02*
X115375000Y-120750000D01*
X115375000Y-120750000D02*
X115375000Y-115775001D01*
%TO.N,Net-(D1-K)*%
X114962500Y-122912500D02*
X115000000Y-122875000D01*
X113000000Y-122912500D02*
X114962500Y-122912500D01*
%TO.N,Net-(D2-A)*%
X115776000Y-125349000D02*
X115000000Y-126125000D01*
X117862500Y-114675000D02*
X117125001Y-114675000D01*
X117125001Y-114675000D02*
X115776000Y-116024001D01*
X115776000Y-116024001D02*
X115776000Y-125349000D01*
%TO.N,Net-(D2-K)*%
X114962500Y-127912500D02*
X115000000Y-127875000D01*
X113000000Y-127912500D02*
X114962500Y-127912500D01*
%TO.N,Net-(D3-A)*%
X117862500Y-112725000D02*
X118850000Y-112725000D01*
X118850000Y-112725000D02*
X121125000Y-115000000D01*
%TO.N,Net-(D3-K)*%
X122912500Y-114962500D02*
X122875000Y-115000000D01*
X122912500Y-112500000D02*
X122912500Y-114962500D01*
%TO.N,Net-(D4-A)*%
X117862500Y-113375000D02*
X118875000Y-113375000D01*
X120000000Y-116000000D02*
X125125000Y-116000000D01*
X120000000Y-114500000D02*
X120000000Y-116000000D01*
X125125000Y-116000000D02*
X126125000Y-115000000D01*
X118875000Y-113375000D02*
X120000000Y-114500000D01*
%TO.N,Net-(D4-K)*%
X127912500Y-112500000D02*
X127912500Y-114962500D01*
X127912500Y-114962500D02*
X127875000Y-115000000D01*
%TO.N,Net-(D5-K)*%
X116962500Y-107125000D02*
X117000000Y-107087500D01*
X115000000Y-107125000D02*
X116962500Y-107125000D01*
%TO.N,Net-(D5-A)*%
X115000000Y-109212500D02*
X115000000Y-108875000D01*
X117862500Y-112075000D02*
X115000000Y-109212500D01*
%TO.N,Net-(D6-A)*%
X112000000Y-111937500D02*
X112137500Y-112075000D01*
X112137500Y-106737500D02*
X115000000Y-103875000D01*
X112137500Y-112075000D02*
X112137500Y-106737500D01*
%TO.N,Net-(D6-K)*%
X115000000Y-102125000D02*
X116962500Y-102125000D01*
X116962500Y-102125000D02*
X117000000Y-102087500D01*
%TO.N,Net-(D7-K)*%
X107125000Y-116962500D02*
X107087500Y-117000000D01*
X107125000Y-115000000D02*
X107125000Y-116962500D01*
%TO.N,Net-(D7-A)*%
X110625000Y-113375000D02*
X109000000Y-115000000D01*
X112137500Y-113375000D02*
X110625000Y-113375000D01*
%TO.N,Net-(D8-A)*%
X112137500Y-112725000D02*
X106275000Y-112725000D01*
X106275000Y-112725000D02*
X104000000Y-115000000D01*
%TO.N,Net-(D8-K)*%
X102125000Y-115000000D02*
X102125000Y-116962500D01*
X102125000Y-116962500D02*
X102087500Y-117000000D01*
%TO.N,Net-(U1-PA14)*%
X111400001Y-117925000D02*
X110802000Y-118523001D01*
X112137500Y-117925000D02*
X111400001Y-117925000D01*
X110802000Y-118523001D02*
X110802000Y-121698000D01*
X110802000Y-121698000D02*
X107500000Y-125000000D01*
%TO.N,Net-(U1-PA13)*%
X110401000Y-118099000D02*
X110401000Y-121531900D01*
X107932900Y-124000000D02*
X107230000Y-124000000D01*
X111225000Y-117275000D02*
X110401000Y-118099000D01*
X112137500Y-117275000D02*
X111225000Y-117275000D01*
X107230000Y-124000000D02*
X106230000Y-125000000D01*
X110401000Y-121531900D02*
X107932900Y-124000000D01*
%TO.N,Net-(R11-Pad1)*%
X128250000Y-123750000D02*
X128250000Y-120162500D01*
X128250000Y-120162500D02*
X126087500Y-118000000D01*
%TO.N,Net-(U1-BOOT0)*%
X118000000Y-118062500D02*
X117862500Y-117925000D01*
X118000000Y-121087500D02*
X118000000Y-118062500D01*
%TO.N,Net-(U1-NRST)*%
X117862500Y-115975000D02*
X118599999Y-115975000D01*
X120624999Y-118000000D02*
X121087500Y-118000000D01*
X118599999Y-115975000D02*
X120624999Y-118000000D01*
X116500000Y-116500000D02*
X117025000Y-115975000D01*
X106000000Y-127500000D02*
X106270000Y-127500000D01*
X106270000Y-127500000D02*
X107500000Y-126270000D01*
X116500000Y-116500000D02*
X116500000Y-128500000D01*
X117025000Y-115975000D02*
X117862500Y-115975000D01*
%TO.N,GND*%
X110599000Y-115558901D02*
X111099000Y-115058901D01*
X110599000Y-116766800D02*
X110599000Y-115558901D01*
X108912500Y-117000000D02*
X110365800Y-117000000D01*
X112137500Y-114824000D02*
X112137500Y-114675000D01*
X111331130Y-114824000D02*
X112137500Y-114824000D01*
X111099000Y-115056130D02*
X111331130Y-114824000D01*
X111099000Y-115058901D02*
X111099000Y-115056130D01*
X113000000Y-121087500D02*
X113212500Y-121087500D01*
X110365800Y-117000000D02*
X110599000Y-116766800D01*
%TO.N,+3V0*%
X110000000Y-119000000D02*
X110000000Y-117932900D01*
X111000000Y-116932900D02*
X111000000Y-115725001D01*
X105500000Y-121000000D02*
X105500000Y-119000000D01*
X124500000Y-103000000D02*
X122037500Y-103000000D01*
X105500000Y-122500000D02*
X105500000Y-121000000D01*
X129000000Y-116000000D02*
X125692100Y-116000000D01*
X125346050Y-116346050D02*
X125291100Y-116401000D01*
X129000000Y-116000000D02*
X129000000Y-116912500D01*
X106230000Y-126270000D02*
X105730000Y-126270000D01*
X103000000Y-124500000D02*
X103500000Y-124500000D01*
X129000000Y-116912500D02*
X127912500Y-118000000D01*
X123500000Y-118000000D02*
X122912500Y-118000000D01*
X110000000Y-117932900D02*
X111000000Y-116932900D01*
X104462500Y-119962500D02*
X105500000Y-121000000D01*
X117205130Y-115325000D02*
X117862500Y-115325000D01*
X118757900Y-115325000D02*
X117862500Y-115325000D01*
X103000000Y-119962500D02*
X104462500Y-119962500D01*
X119833900Y-116401000D02*
X118757900Y-115325000D01*
X125692100Y-116000000D02*
X125596050Y-116096050D01*
X125291100Y-116401000D02*
X125099000Y-116401000D01*
X111400001Y-115325000D02*
X112137500Y-115325000D01*
X125596050Y-116096050D02*
X125346050Y-116346050D01*
X111000000Y-115725001D02*
X111400001Y-115325000D01*
X124500000Y-105500000D02*
X124500000Y-107000000D01*
X103000000Y-124500000D02*
X103000000Y-125000000D01*
X124500000Y-103000000D02*
X124500000Y-105500000D01*
X108000000Y-119000000D02*
X110000000Y-119000000D01*
X122000000Y-108000000D02*
X124500000Y-105500000D01*
X105730000Y-126270000D02*
X105000000Y-127000000D01*
X125291100Y-116401000D02*
X119833900Y-116401000D01*
X129000000Y-116000000D02*
X129000000Y-111500000D01*
X102637500Y-124137500D02*
X103000000Y-124500000D01*
X125099000Y-116401000D02*
X123500000Y-118000000D01*
X108000000Y-120137500D02*
X108000000Y-119000000D01*
X103500000Y-124500000D02*
X105500000Y-122500000D01*
X129000000Y-111500000D02*
X124500000Y-107000000D01*
X105500000Y-119000000D02*
X108000000Y-119000000D01*
%TO.N,Net-(U1-PA9)*%
X113176000Y-118193870D02*
X112869870Y-118500000D01*
X112874999Y-115975000D02*
X113176000Y-116276001D01*
X111567100Y-118500000D02*
X111203000Y-118864100D01*
X111203000Y-121942530D02*
X111000000Y-122145530D01*
X112137500Y-115975000D02*
X112874999Y-115975000D01*
X111203000Y-118864100D02*
X111203000Y-121942530D01*
X111000000Y-122145530D02*
X111000000Y-123990410D01*
X112869870Y-118500000D02*
X111567100Y-118500000D01*
X113176000Y-116276001D02*
X113176000Y-118193870D01*
X111000000Y-123990410D02*
X111500000Y-124490410D01*
%TD*%
%TA.AperFunction,Conductor*%
%TO.N,GND*%
G36*
X129442539Y-100520185D02*
G01*
X129488294Y-100572989D01*
X129499500Y-100624500D01*
X129499500Y-110992324D01*
X129479815Y-111059363D01*
X129427011Y-111105118D01*
X129357853Y-111115062D01*
X129294297Y-111086037D01*
X129287819Y-111080005D01*
X125036819Y-106829005D01*
X125003334Y-106767682D01*
X125000500Y-106741324D01*
X125000500Y-104112206D01*
X125020185Y-104045167D01*
X125068205Y-104001721D01*
X125102994Y-103983996D01*
X125249501Y-103877553D01*
X125377553Y-103749501D01*
X125483996Y-103602994D01*
X125566211Y-103441639D01*
X125622171Y-103269409D01*
X125636765Y-103177259D01*
X125650500Y-103090551D01*
X125650500Y-102909448D01*
X125622338Y-102731648D01*
X125622171Y-102730591D01*
X125588676Y-102627502D01*
X125566212Y-102558363D01*
X125566211Y-102558360D01*
X125527604Y-102482591D01*
X125483996Y-102397006D01*
X125466048Y-102372302D01*
X125377558Y-102250505D01*
X125377554Y-102250500D01*
X125249499Y-102122445D01*
X125249494Y-102122441D01*
X125102997Y-102016006D01*
X125102996Y-102016005D01*
X125102994Y-102016004D01*
X125051300Y-101989664D01*
X124941639Y-101933788D01*
X124941636Y-101933787D01*
X124769410Y-101877829D01*
X124590551Y-101849500D01*
X124590546Y-101849500D01*
X124409454Y-101849500D01*
X124409449Y-101849500D01*
X124230589Y-101877829D01*
X124058363Y-101933787D01*
X124058360Y-101933788D01*
X123897002Y-102016006D01*
X123750505Y-102122441D01*
X123750500Y-102122445D01*
X123622445Y-102250500D01*
X123622441Y-102250505D01*
X123516006Y-102397002D01*
X123513489Y-102401942D01*
X123500716Y-102427011D01*
X123498278Y-102431795D01*
X123487828Y-102442859D01*
X123481506Y-102456703D01*
X123464325Y-102467744D01*
X123450303Y-102482591D01*
X123434623Y-102486832D01*
X123422728Y-102494477D01*
X123387793Y-102499500D01*
X123138090Y-102499500D01*
X123071051Y-102479815D01*
X123025296Y-102427011D01*
X123019014Y-102410095D01*
X122979269Y-102273292D01*
X122976744Y-102264602D01*
X122893081Y-102123135D01*
X122893079Y-102123133D01*
X122893076Y-102123129D01*
X122776870Y-102006923D01*
X122776862Y-102006917D01*
X122653208Y-101933789D01*
X122635398Y-101923256D01*
X122635397Y-101923255D01*
X122635396Y-101923255D01*
X122635393Y-101923254D01*
X122477573Y-101877402D01*
X122477567Y-101877401D01*
X122440701Y-101874500D01*
X122440694Y-101874500D01*
X121634306Y-101874500D01*
X121634298Y-101874500D01*
X121597432Y-101877401D01*
X121597426Y-101877402D01*
X121439606Y-101923254D01*
X121439603Y-101923255D01*
X121298137Y-102006917D01*
X121298129Y-102006923D01*
X121181923Y-102123129D01*
X121181916Y-102123138D01*
X121164734Y-102152193D01*
X121113665Y-102199876D01*
X121044923Y-102212380D01*
X120980334Y-102185735D01*
X120952463Y-102154169D01*
X120892315Y-102056654D01*
X120768345Y-101932684D01*
X120619124Y-101840643D01*
X120619119Y-101840641D01*
X120452697Y-101785494D01*
X120452690Y-101785493D01*
X120349986Y-101775000D01*
X120212500Y-101775000D01*
X120212500Y-104224999D01*
X120349972Y-104224999D01*
X120349986Y-104224998D01*
X120452697Y-104214505D01*
X120619119Y-104159358D01*
X120619124Y-104159356D01*
X120768345Y-104067315D01*
X120892317Y-103943343D01*
X120952463Y-103845831D01*
X121004411Y-103799106D01*
X121073373Y-103787883D01*
X121137455Y-103815726D01*
X121164732Y-103847803D01*
X121181919Y-103876865D01*
X121181921Y-103876867D01*
X121181923Y-103876870D01*
X121298129Y-103993076D01*
X121298133Y-103993079D01*
X121298135Y-103993081D01*
X121439602Y-104076744D01*
X121447381Y-104079004D01*
X121597426Y-104122597D01*
X121597429Y-104122597D01*
X121597431Y-104122598D01*
X121634306Y-104125500D01*
X121634314Y-104125500D01*
X122440686Y-104125500D01*
X122440694Y-104125500D01*
X122477569Y-104122598D01*
X122477571Y-104122597D01*
X122477573Y-104122597D01*
X122519191Y-104110505D01*
X122635398Y-104076744D01*
X122776865Y-103993081D01*
X122893081Y-103876865D01*
X122976744Y-103735398D01*
X123019014Y-103589904D01*
X123033327Y-103567491D01*
X123044377Y-103543297D01*
X123051843Y-103538498D01*
X123056620Y-103531019D01*
X123080782Y-103519901D01*
X123103155Y-103505523D01*
X123116062Y-103503667D01*
X123120092Y-103501813D01*
X123138090Y-103500500D01*
X123387793Y-103500500D01*
X123454832Y-103520185D01*
X123498278Y-103568205D01*
X123516006Y-103602997D01*
X123622441Y-103749494D01*
X123622445Y-103749499D01*
X123750500Y-103877554D01*
X123750505Y-103877558D01*
X123897001Y-103983993D01*
X123897003Y-103983994D01*
X123897006Y-103983996D01*
X123931794Y-104001721D01*
X123982590Y-104049694D01*
X123999500Y-104112206D01*
X123999500Y-105241323D01*
X123979815Y-105308362D01*
X123963181Y-105329004D01*
X122204003Y-107088181D01*
X122142680Y-107121666D01*
X122116322Y-107124500D01*
X121635577Y-107124500D01*
X121635552Y-107124501D01*
X121599401Y-107127346D01*
X121444610Y-107172317D01*
X121444603Y-107172320D01*
X121305865Y-107254368D01*
X121305854Y-107254376D01*
X121295532Y-107264698D01*
X121234206Y-107298179D01*
X121164515Y-107293190D01*
X121120175Y-107264692D01*
X121035538Y-107180055D01*
X121035534Y-107180052D01*
X120888811Y-107089551D01*
X120888800Y-107089546D01*
X120725152Y-107035319D01*
X120624154Y-107025000D01*
X120525000Y-107025000D01*
X120525000Y-108974999D01*
X120624140Y-108974999D01*
X120624154Y-108974998D01*
X120725152Y-108964680D01*
X120888800Y-108910453D01*
X120888811Y-108910448D01*
X121035533Y-108819948D01*
X121120174Y-108735307D01*
X121181497Y-108701822D01*
X121251189Y-108706806D01*
X121295537Y-108735307D01*
X121305851Y-108745621D01*
X121305855Y-108745624D01*
X121305857Y-108745626D01*
X121305860Y-108745627D01*
X121305863Y-108745630D01*
X121374972Y-108786500D01*
X121444606Y-108827681D01*
X121485428Y-108839541D01*
X121599397Y-108872653D01*
X121599400Y-108872653D01*
X121599402Y-108872654D01*
X121635565Y-108875500D01*
X122364434Y-108875499D01*
X122400598Y-108872654D01*
X122555394Y-108827681D01*
X122694143Y-108745626D01*
X122808126Y-108631643D01*
X122890181Y-108492894D01*
X122935154Y-108338098D01*
X122938000Y-108301935D01*
X122937999Y-107821174D01*
X122957683Y-107754136D01*
X122974313Y-107733499D01*
X123787820Y-106919993D01*
X123849142Y-106886509D01*
X123918834Y-106891493D01*
X123974767Y-106933365D01*
X123999184Y-106998829D01*
X123999500Y-107007675D01*
X123999500Y-107065892D01*
X124014444Y-107121666D01*
X124033608Y-107193187D01*
X124066554Y-107250250D01*
X124099500Y-107307314D01*
X124099502Y-107307316D01*
X128205005Y-111412819D01*
X128238490Y-111474142D01*
X128233506Y-111543834D01*
X128191634Y-111599767D01*
X128126170Y-111624184D01*
X128117324Y-111624500D01*
X127598077Y-111624500D01*
X127598052Y-111624501D01*
X127561901Y-111627346D01*
X127407110Y-111672317D01*
X127407103Y-111672320D01*
X127268363Y-111754369D01*
X127268351Y-111754378D01*
X127148857Y-111873873D01*
X127147359Y-111872375D01*
X127099571Y-111906884D01*
X127029804Y-111910669D01*
X126969066Y-111876134D01*
X126952704Y-111855072D01*
X126919945Y-111801962D01*
X126798038Y-111680055D01*
X126798034Y-111680052D01*
X126651311Y-111589551D01*
X126651300Y-111589546D01*
X126487652Y-111535319D01*
X126386654Y-111525000D01*
X126337500Y-111525000D01*
X126337500Y-113474999D01*
X126386640Y-113474999D01*
X126386654Y-113474998D01*
X126487652Y-113464680D01*
X126651300Y-113410453D01*
X126651311Y-113410448D01*
X126798034Y-113319947D01*
X126798038Y-113319944D01*
X126919943Y-113198039D01*
X126952703Y-113144928D01*
X127004651Y-113098204D01*
X127073614Y-113086981D01*
X127137696Y-113114825D01*
X127148726Y-113126257D01*
X127148857Y-113126127D01*
X127268351Y-113245621D01*
X127268354Y-113245623D01*
X127268357Y-113245626D01*
X127351122Y-113294573D01*
X127398804Y-113345639D01*
X127412000Y-113401303D01*
X127412000Y-114056292D01*
X127392315Y-114123331D01*
X127339511Y-114169086D01*
X127337257Y-114170089D01*
X127332105Y-114172318D01*
X127193363Y-114254369D01*
X127193351Y-114254378D01*
X127087681Y-114360049D01*
X127026358Y-114393534D01*
X126956666Y-114388550D01*
X126912319Y-114360049D01*
X126806648Y-114254378D01*
X126806636Y-114254369D01*
X126667896Y-114172320D01*
X126667889Y-114172317D01*
X126513102Y-114127346D01*
X126513096Y-114127345D01*
X126476935Y-114124500D01*
X125773077Y-114124500D01*
X125773052Y-114124501D01*
X125736901Y-114127346D01*
X125582110Y-114172317D01*
X125582103Y-114172320D01*
X125443363Y-114254369D01*
X125443351Y-114254378D01*
X125329378Y-114368351D01*
X125329369Y-114368363D01*
X125247320Y-114507103D01*
X125247317Y-114507110D01*
X125202346Y-114661897D01*
X125202345Y-114661903D01*
X125199500Y-114698057D01*
X125199500Y-115166323D01*
X125179815Y-115233362D01*
X125163181Y-115254004D01*
X124954005Y-115463181D01*
X124892682Y-115496666D01*
X124866324Y-115499500D01*
X123915915Y-115499500D01*
X123848876Y-115479815D01*
X123803121Y-115427011D01*
X123793177Y-115357853D01*
X123796838Y-115340906D01*
X123797654Y-115338098D01*
X123800500Y-115301935D01*
X123800499Y-114698066D01*
X123797654Y-114661902D01*
X123752681Y-114507106D01*
X123700251Y-114418451D01*
X123670630Y-114368363D01*
X123670621Y-114368351D01*
X123556648Y-114254378D01*
X123556639Y-114254371D01*
X123473879Y-114205427D01*
X123426195Y-114154358D01*
X123413000Y-114098695D01*
X123413000Y-113401303D01*
X123432685Y-113334264D01*
X123473876Y-113294573D01*
X123556643Y-113245626D01*
X123670626Y-113131643D01*
X123752681Y-112992894D01*
X123797654Y-112838098D01*
X123800500Y-112801935D01*
X123800500Y-112786654D01*
X125100001Y-112786654D01*
X125110319Y-112887652D01*
X125164546Y-113051300D01*
X125164551Y-113051311D01*
X125255052Y-113198034D01*
X125255055Y-113198038D01*
X125376961Y-113319944D01*
X125376965Y-113319947D01*
X125523688Y-113410448D01*
X125523699Y-113410453D01*
X125687347Y-113464680D01*
X125788351Y-113474999D01*
X125837499Y-113474998D01*
X125837500Y-113474998D01*
X125837500Y-112750000D01*
X125100001Y-112750000D01*
X125100001Y-112786654D01*
X123800500Y-112786654D01*
X123800499Y-112213345D01*
X125100000Y-112213345D01*
X125100000Y-112250000D01*
X125837500Y-112250000D01*
X125837500Y-111525000D01*
X125837499Y-111524999D01*
X125788361Y-111525000D01*
X125788343Y-111525001D01*
X125687347Y-111535319D01*
X125523699Y-111589546D01*
X125523688Y-111589551D01*
X125376965Y-111680052D01*
X125376961Y-111680055D01*
X125255055Y-111801961D01*
X125255052Y-111801965D01*
X125164551Y-111948688D01*
X125164546Y-111948699D01*
X125110319Y-112112347D01*
X125100000Y-112213345D01*
X123800499Y-112213345D01*
X123800499Y-112198066D01*
X123797654Y-112161902D01*
X123752681Y-112007106D01*
X123718133Y-111948688D01*
X123670630Y-111868363D01*
X123670621Y-111868351D01*
X123556648Y-111754378D01*
X123556636Y-111754369D01*
X123417896Y-111672320D01*
X123417889Y-111672317D01*
X123263102Y-111627346D01*
X123263096Y-111627345D01*
X123226935Y-111624500D01*
X122598077Y-111624500D01*
X122598052Y-111624501D01*
X122561901Y-111627346D01*
X122407110Y-111672317D01*
X122407103Y-111672320D01*
X122268363Y-111754369D01*
X122268351Y-111754378D01*
X122148857Y-111873873D01*
X122147359Y-111872375D01*
X122099571Y-111906884D01*
X122029804Y-111910669D01*
X121969066Y-111876134D01*
X121952704Y-111855072D01*
X121919945Y-111801962D01*
X121798038Y-111680055D01*
X121798034Y-111680052D01*
X121651311Y-111589551D01*
X121651300Y-111589546D01*
X121487652Y-111535319D01*
X121386654Y-111525000D01*
X121337500Y-111525000D01*
X121337500Y-113474999D01*
X121386640Y-113474999D01*
X121386654Y-113474998D01*
X121487652Y-113464680D01*
X121651300Y-113410453D01*
X121651311Y-113410448D01*
X121798034Y-113319947D01*
X121798038Y-113319944D01*
X121919943Y-113198039D01*
X121952703Y-113144928D01*
X122004651Y-113098204D01*
X122073614Y-113086981D01*
X122137696Y-113114825D01*
X122148726Y-113126257D01*
X122148857Y-113126127D01*
X122268351Y-113245621D01*
X122268354Y-113245623D01*
X122268357Y-113245626D01*
X122351122Y-113294573D01*
X122398804Y-113345639D01*
X122412000Y-113401303D01*
X122412000Y-114056292D01*
X122392315Y-114123331D01*
X122339511Y-114169086D01*
X122337257Y-114170089D01*
X122332105Y-114172318D01*
X122193363Y-114254369D01*
X122193351Y-114254378D01*
X122087681Y-114360049D01*
X122026358Y-114393534D01*
X121956666Y-114388550D01*
X121912319Y-114360049D01*
X121806648Y-114254378D01*
X121806636Y-114254369D01*
X121667896Y-114172320D01*
X121667889Y-114172317D01*
X121513102Y-114127346D01*
X121513096Y-114127345D01*
X121476942Y-114124500D01*
X121476935Y-114124500D01*
X121008676Y-114124500D01*
X120941637Y-114104815D01*
X120920995Y-114088181D01*
X120474246Y-113641432D01*
X120440761Y-113580109D01*
X120445745Y-113510417D01*
X120487617Y-113454484D01*
X120553081Y-113430067D01*
X120600931Y-113436045D01*
X120687348Y-113464680D01*
X120788351Y-113474999D01*
X120837499Y-113474998D01*
X120837500Y-113474998D01*
X120837500Y-112750000D01*
X120100001Y-112750000D01*
X120100001Y-112786654D01*
X120110319Y-112887653D01*
X120138954Y-112974069D01*
X120141356Y-113043897D01*
X120105624Y-113103939D01*
X120043103Y-113135131D01*
X119973644Y-113127570D01*
X119933567Y-113100753D01*
X119157316Y-112324502D01*
X119157314Y-112324500D01*
X119145332Y-112317582D01*
X119145332Y-112317581D01*
X119062499Y-112269758D01*
X119014283Y-112219191D01*
X119012865Y-112213345D01*
X120100000Y-112213345D01*
X120100000Y-112250000D01*
X120837500Y-112250000D01*
X120837500Y-111525000D01*
X120837499Y-111524999D01*
X120788361Y-111525000D01*
X120788343Y-111525001D01*
X120687347Y-111535319D01*
X120523699Y-111589546D01*
X120523688Y-111589551D01*
X120376965Y-111680052D01*
X120376961Y-111680055D01*
X120255055Y-111801961D01*
X120255052Y-111801965D01*
X120164551Y-111948688D01*
X120164546Y-111948699D01*
X120110319Y-112112347D01*
X120100000Y-112213345D01*
X119012865Y-112213345D01*
X119000499Y-112162374D01*
X119000499Y-111927128D01*
X118994091Y-111867517D01*
X118989449Y-111855072D01*
X118943797Y-111732671D01*
X118943793Y-111732664D01*
X118857547Y-111617455D01*
X118857544Y-111617452D01*
X118742335Y-111531206D01*
X118742328Y-111531202D01*
X118607482Y-111480908D01*
X118607483Y-111480908D01*
X118547883Y-111474501D01*
X118547881Y-111474500D01*
X118547873Y-111474500D01*
X118547865Y-111474500D01*
X118021175Y-111474500D01*
X117954136Y-111454815D01*
X117933494Y-111438181D01*
X116605588Y-110110274D01*
X116572103Y-110048951D01*
X116577087Y-109979259D01*
X116618959Y-109923326D01*
X116684423Y-109898909D01*
X116705880Y-109899236D01*
X116713352Y-109899999D01*
X116750000Y-109899999D01*
X117250000Y-109899999D01*
X117286640Y-109899999D01*
X117286654Y-109899998D01*
X117387652Y-109889680D01*
X117551300Y-109835453D01*
X117551311Y-109835448D01*
X117698034Y-109744947D01*
X117698038Y-109744944D01*
X117819944Y-109623038D01*
X117819947Y-109623034D01*
X117910448Y-109476311D01*
X117910453Y-109476300D01*
X117964680Y-109312652D01*
X117974999Y-109211654D01*
X117975000Y-109211641D01*
X117975000Y-109162500D01*
X117250000Y-109162500D01*
X117250000Y-109899999D01*
X116750000Y-109899999D01*
X116750000Y-109036500D01*
X116769685Y-108969461D01*
X116822489Y-108923706D01*
X116874000Y-108912500D01*
X117000000Y-108912500D01*
X117000000Y-108786500D01*
X117019685Y-108719461D01*
X117072489Y-108673706D01*
X117124000Y-108662500D01*
X117974999Y-108662500D01*
X117974999Y-108613360D01*
X117974998Y-108613345D01*
X117964680Y-108512347D01*
X117910453Y-108348699D01*
X117910448Y-108348688D01*
X117872185Y-108286654D01*
X119237501Y-108286654D01*
X119247819Y-108387652D01*
X119302046Y-108551300D01*
X119302051Y-108551311D01*
X119392552Y-108698034D01*
X119392555Y-108698038D01*
X119514461Y-108819944D01*
X119514465Y-108819947D01*
X119661188Y-108910448D01*
X119661199Y-108910453D01*
X119824847Y-108964680D01*
X119925851Y-108974999D01*
X120025000Y-108974998D01*
X120025000Y-108250000D01*
X119237501Y-108250000D01*
X119237501Y-108286654D01*
X117872185Y-108286654D01*
X117858048Y-108263735D01*
X117819947Y-108201965D01*
X117819944Y-108201961D01*
X117698037Y-108080054D01*
X117644927Y-108047295D01*
X117598203Y-107995346D01*
X117586982Y-107926384D01*
X117614826Y-107862302D01*
X117626257Y-107851273D01*
X117626127Y-107851143D01*
X117745621Y-107731648D01*
X117745626Y-107731643D01*
X117756447Y-107713345D01*
X119237500Y-107713345D01*
X119237500Y-107750000D01*
X120025000Y-107750000D01*
X120025000Y-107024999D01*
X119925860Y-107025000D01*
X119925844Y-107025001D01*
X119824847Y-107035319D01*
X119661199Y-107089546D01*
X119661188Y-107089551D01*
X119514465Y-107180052D01*
X119514461Y-107180055D01*
X119392555Y-107301961D01*
X119392552Y-107301965D01*
X119302051Y-107448688D01*
X119302046Y-107448699D01*
X119247819Y-107612347D01*
X119237500Y-107713345D01*
X117756447Y-107713345D01*
X117827681Y-107592894D01*
X117872654Y-107438098D01*
X117875500Y-107401935D01*
X117875499Y-106773066D01*
X117872654Y-106736902D01*
X117827681Y-106582106D01*
X117745626Y-106443357D01*
X117745624Y-106443355D01*
X117745621Y-106443351D01*
X117631648Y-106329378D01*
X117631636Y-106329369D01*
X117492896Y-106247320D01*
X117492889Y-106247317D01*
X117338102Y-106202346D01*
X117338096Y-106202345D01*
X117301935Y-106199500D01*
X116698077Y-106199500D01*
X116698052Y-106199501D01*
X116661901Y-106202346D01*
X116507110Y-106247317D01*
X116507103Y-106247320D01*
X116368363Y-106329369D01*
X116368351Y-106329378D01*
X116254378Y-106443351D01*
X116254369Y-106443363D01*
X116183251Y-106563620D01*
X116174950Y-106571370D01*
X116170232Y-106581703D01*
X116149870Y-106594788D01*
X116132183Y-106611304D01*
X116119488Y-106614313D01*
X116111454Y-106619477D01*
X116076519Y-106624500D01*
X115923481Y-106624500D01*
X115856442Y-106604815D01*
X115816749Y-106563620D01*
X115745630Y-106443363D01*
X115745621Y-106443351D01*
X115631648Y-106329378D01*
X115631636Y-106329369D01*
X115492896Y-106247320D01*
X115492889Y-106247317D01*
X115338102Y-106202346D01*
X115338096Y-106202345D01*
X115301935Y-106199500D01*
X114698077Y-106199500D01*
X114698052Y-106199501D01*
X114661901Y-106202346D01*
X114507110Y-106247317D01*
X114507103Y-106247320D01*
X114368363Y-106329369D01*
X114368351Y-106329378D01*
X114254378Y-106443351D01*
X114254369Y-106443363D01*
X114172320Y-106582103D01*
X114172317Y-106582110D01*
X114127346Y-106736897D01*
X114127345Y-106736903D01*
X114124500Y-106773057D01*
X114124500Y-107476922D01*
X114124501Y-107476947D01*
X114127346Y-107513098D01*
X114172317Y-107667889D01*
X114172320Y-107667896D01*
X114254369Y-107806636D01*
X114254378Y-107806648D01*
X114360049Y-107912319D01*
X114393534Y-107973642D01*
X114388550Y-108043334D01*
X114360049Y-108087681D01*
X114254378Y-108193351D01*
X114254369Y-108193363D01*
X114172320Y-108332103D01*
X114172317Y-108332110D01*
X114127346Y-108486897D01*
X114127345Y-108486903D01*
X114124500Y-108523057D01*
X114124500Y-109226922D01*
X114124501Y-109226947D01*
X114127346Y-109263098D01*
X114172317Y-109417889D01*
X114172320Y-109417896D01*
X114254369Y-109556636D01*
X114254378Y-109556648D01*
X114368351Y-109670621D01*
X114368355Y-109670624D01*
X114368357Y-109670626D01*
X114368360Y-109670627D01*
X114368363Y-109670630D01*
X114460856Y-109725329D01*
X114507106Y-109752681D01*
X114547928Y-109764541D01*
X114661897Y-109797653D01*
X114661900Y-109797653D01*
X114661902Y-109797654D01*
X114698065Y-109800500D01*
X114828822Y-109800499D01*
X114895862Y-109820183D01*
X114916504Y-109836818D01*
X116733317Y-111653630D01*
X116766802Y-111714953D01*
X116761818Y-111784644D01*
X116730910Y-111867513D01*
X116730909Y-111867517D01*
X116724500Y-111927127D01*
X116724500Y-111927134D01*
X116724500Y-111927135D01*
X116724500Y-112222869D01*
X116724501Y-112222876D01*
X116730908Y-112282483D01*
X116758577Y-112356667D01*
X116763561Y-112426358D01*
X116758577Y-112443331D01*
X116730910Y-112517511D01*
X116730909Y-112517515D01*
X116730909Y-112517517D01*
X116724500Y-112577127D01*
X116724500Y-112577134D01*
X116724500Y-112577135D01*
X116724500Y-112872869D01*
X116724501Y-112872876D01*
X116730908Y-112932483D01*
X116758577Y-113006667D01*
X116763561Y-113076358D01*
X116758577Y-113093331D01*
X116730910Y-113167511D01*
X116730909Y-113167515D01*
X116730909Y-113167517D01*
X116724500Y-113227127D01*
X116724500Y-113227134D01*
X116724500Y-113227135D01*
X116724500Y-113522869D01*
X116724501Y-113522876D01*
X116730908Y-113582483D01*
X116738048Y-113601625D01*
X116743032Y-113671317D01*
X116709547Y-113732638D01*
X115067686Y-115374501D01*
X114974502Y-115467684D01*
X114974500Y-115467687D01*
X114908608Y-115581813D01*
X114874500Y-115709109D01*
X114874500Y-120075500D01*
X114854815Y-120142539D01*
X114802011Y-120188294D01*
X114750502Y-120199500D01*
X114698077Y-120199500D01*
X114698051Y-120199501D01*
X114661901Y-120202346D01*
X114507110Y-120247317D01*
X114507103Y-120247320D01*
X114368363Y-120329369D01*
X114368351Y-120329378D01*
X114254378Y-120443351D01*
X114254369Y-120443363D01*
X114172320Y-120582103D01*
X114172318Y-120582108D01*
X114170323Y-120588974D01*
X114132713Y-120647858D01*
X114069239Y-120677061D01*
X114000053Y-120667311D01*
X113947121Y-120621705D01*
X113933542Y-120593377D01*
X113910453Y-120523699D01*
X113910448Y-120523688D01*
X113819947Y-120376965D01*
X113819944Y-120376961D01*
X113698038Y-120255055D01*
X113698034Y-120255052D01*
X113551311Y-120164551D01*
X113551300Y-120164546D01*
X113387652Y-120110319D01*
X113286654Y-120100000D01*
X113250000Y-120100000D01*
X113250000Y-120963500D01*
X113230315Y-121030539D01*
X113177511Y-121076294D01*
X113126000Y-121087500D01*
X113000000Y-121087500D01*
X113000000Y-121213500D01*
X112980315Y-121280539D01*
X112927511Y-121326294D01*
X112876000Y-121337500D01*
X112025001Y-121337500D01*
X112025001Y-121386654D01*
X112035319Y-121487652D01*
X112089546Y-121651300D01*
X112089551Y-121651311D01*
X112180052Y-121798034D01*
X112180055Y-121798038D01*
X112301962Y-121919945D01*
X112355072Y-121952704D01*
X112401796Y-122004652D01*
X112413017Y-122073615D01*
X112385174Y-122137697D01*
X112373742Y-122148726D01*
X112373873Y-122148857D01*
X112254378Y-122268351D01*
X112254369Y-122268363D01*
X112172320Y-122407103D01*
X112172317Y-122407110D01*
X112127346Y-122561897D01*
X112127345Y-122561903D01*
X112124500Y-122598057D01*
X112124500Y-123226922D01*
X112124501Y-123226947D01*
X112127346Y-123263098D01*
X112172317Y-123417889D01*
X112172320Y-123417896D01*
X112254369Y-123556636D01*
X112254378Y-123556648D01*
X112368351Y-123670621D01*
X112368355Y-123670624D01*
X112368357Y-123670626D01*
X112368360Y-123670627D01*
X112368363Y-123670630D01*
X112460856Y-123725329D01*
X112507106Y-123752681D01*
X112545216Y-123763753D01*
X112661897Y-123797653D01*
X112661900Y-123797653D01*
X112661902Y-123797654D01*
X112698065Y-123800500D01*
X113301934Y-123800499D01*
X113338098Y-123797654D01*
X113492894Y-123752681D01*
X113631643Y-123670626D01*
X113745626Y-123556643D01*
X113763374Y-123526632D01*
X113794572Y-123473880D01*
X113802872Y-123466130D01*
X113807591Y-123455797D01*
X113827954Y-123442710D01*
X113845641Y-123426196D01*
X113858333Y-123423186D01*
X113866369Y-123418023D01*
X113901304Y-123413000D01*
X114098696Y-123413000D01*
X114165735Y-123432685D01*
X114205428Y-123473880D01*
X114254369Y-123556636D01*
X114254378Y-123556648D01*
X114368351Y-123670621D01*
X114368355Y-123670624D01*
X114368357Y-123670626D01*
X114368360Y-123670627D01*
X114368363Y-123670630D01*
X114460856Y-123725329D01*
X114507106Y-123752681D01*
X114545216Y-123763753D01*
X114661897Y-123797653D01*
X114661900Y-123797653D01*
X114661902Y-123797654D01*
X114698065Y-123800500D01*
X115151500Y-123800499D01*
X115218539Y-123820183D01*
X115264294Y-123872987D01*
X115275500Y-123924499D01*
X115275500Y-125075500D01*
X115255815Y-125142539D01*
X115203011Y-125188294D01*
X115151500Y-125199500D01*
X114698077Y-125199500D01*
X114698052Y-125199501D01*
X114661901Y-125202346D01*
X114507110Y-125247317D01*
X114507103Y-125247320D01*
X114368363Y-125329369D01*
X114368351Y-125329378D01*
X114254378Y-125443351D01*
X114254369Y-125443363D01*
X114172320Y-125582103D01*
X114172318Y-125582108D01*
X114170323Y-125588974D01*
X114132713Y-125647858D01*
X114069239Y-125677061D01*
X114000053Y-125667311D01*
X113947121Y-125621705D01*
X113933542Y-125593377D01*
X113910453Y-125523699D01*
X113910448Y-125523688D01*
X113819947Y-125376965D01*
X113819944Y-125376961D01*
X113698038Y-125255055D01*
X113698034Y-125255052D01*
X113551311Y-125164551D01*
X113551300Y-125164546D01*
X113387652Y-125110319D01*
X113286654Y-125100000D01*
X113250000Y-125100000D01*
X113250000Y-125963500D01*
X113230315Y-126030539D01*
X113177511Y-126076294D01*
X113126000Y-126087500D01*
X113000000Y-126087500D01*
X113000000Y-126213500D01*
X112980315Y-126280539D01*
X112927511Y-126326294D01*
X112876000Y-126337500D01*
X112025001Y-126337500D01*
X112025001Y-126386654D01*
X112035319Y-126487652D01*
X112089546Y-126651300D01*
X112089551Y-126651311D01*
X112180052Y-126798034D01*
X112180055Y-126798038D01*
X112301962Y-126919945D01*
X112355072Y-126952704D01*
X112401796Y-127004652D01*
X112413017Y-127073615D01*
X112385174Y-127137697D01*
X112373742Y-127148726D01*
X112373873Y-127148857D01*
X112254378Y-127268351D01*
X112254369Y-127268363D01*
X112172320Y-127407103D01*
X112172317Y-127407110D01*
X112127346Y-127561897D01*
X112127345Y-127561903D01*
X112124500Y-127598057D01*
X112124500Y-128226922D01*
X112124501Y-128226947D01*
X112127346Y-128263098D01*
X112172317Y-128417889D01*
X112172320Y-128417896D01*
X112254369Y-128556636D01*
X112254378Y-128556648D01*
X112368351Y-128670621D01*
X112368355Y-128670624D01*
X112368357Y-128670626D01*
X112368360Y-128670627D01*
X112368363Y-128670630D01*
X112460856Y-128725329D01*
X112507106Y-128752681D01*
X112535451Y-128760916D01*
X112661897Y-128797653D01*
X112661900Y-128797653D01*
X112661902Y-128797654D01*
X112698065Y-128800500D01*
X113301934Y-128800499D01*
X113338098Y-128797654D01*
X113492894Y-128752681D01*
X113631643Y-128670626D01*
X113745626Y-128556643D01*
X113754258Y-128542046D01*
X113794572Y-128473880D01*
X113802872Y-128466130D01*
X113807591Y-128455797D01*
X113827954Y-128442710D01*
X113845641Y-128426196D01*
X113858333Y-128423186D01*
X113866369Y-128418023D01*
X113901304Y-128413000D01*
X114098696Y-128413000D01*
X114165735Y-128432685D01*
X114205428Y-128473880D01*
X114254369Y-128556636D01*
X114254378Y-128556648D01*
X114368351Y-128670621D01*
X114368355Y-128670624D01*
X114368357Y-128670626D01*
X114368360Y-128670627D01*
X114368363Y-128670630D01*
X114460856Y-128725329D01*
X114507106Y-128752681D01*
X114535451Y-128760916D01*
X114661897Y-128797653D01*
X114661900Y-128797653D01*
X114661902Y-128797654D01*
X114698065Y-128800500D01*
X115301934Y-128800499D01*
X115338098Y-128797654D01*
X115492894Y-128752681D01*
X115631643Y-128670626D01*
X115631649Y-128670619D01*
X115637809Y-128665843D01*
X115639416Y-128667915D01*
X115689571Y-128640514D01*
X115759264Y-128645482D01*
X115815207Y-128687340D01*
X115830518Y-128714222D01*
X115879221Y-128831804D01*
X115879228Y-128831817D01*
X115955885Y-128946541D01*
X115955888Y-128946545D01*
X116053454Y-129044111D01*
X116053458Y-129044114D01*
X116168182Y-129120771D01*
X116168195Y-129120778D01*
X116286025Y-129169584D01*
X116295672Y-129173580D01*
X116295676Y-129173580D01*
X116295677Y-129173581D01*
X116431004Y-129200500D01*
X116431007Y-129200500D01*
X116568995Y-129200500D01*
X116660041Y-129182389D01*
X116704328Y-129173580D01*
X116713975Y-129169584D01*
X121183965Y-129169584D01*
X121242315Y-129204092D01*
X121242318Y-129204093D01*
X121390915Y-129247265D01*
X121390926Y-129247267D01*
X121425647Y-129249999D01*
X122074341Y-129249999D01*
X122074363Y-129249998D01*
X122109078Y-129247266D01*
X122257682Y-129204093D01*
X122257689Y-129204090D01*
X122316033Y-129169585D01*
X122316033Y-129169584D01*
X127683965Y-129169584D01*
X127742315Y-129204092D01*
X127742318Y-129204093D01*
X127890915Y-129247265D01*
X127890926Y-129247267D01*
X127925647Y-129249999D01*
X128574341Y-129249999D01*
X128574363Y-129249998D01*
X128609078Y-129247266D01*
X128757682Y-129204093D01*
X128757689Y-129204090D01*
X128816033Y-129169585D01*
X128816033Y-129169584D01*
X128294496Y-128648047D01*
X128363291Y-128619552D01*
X128419552Y-128563291D01*
X128450000Y-128489782D01*
X128450000Y-128249999D01*
X128603552Y-128249999D01*
X128603552Y-128250000D01*
X129114468Y-128760916D01*
X129122267Y-128734075D01*
X129124999Y-128699359D01*
X129124999Y-127800658D01*
X129124998Y-127800636D01*
X129122266Y-127765921D01*
X129114469Y-127739082D01*
X128603552Y-128249999D01*
X128450000Y-128249999D01*
X128450000Y-128010218D01*
X128419552Y-127936709D01*
X128363291Y-127880448D01*
X128294496Y-127851952D01*
X128816033Y-127330414D01*
X128816032Y-127330413D01*
X128757688Y-127295909D01*
X128757681Y-127295906D01*
X128609084Y-127252734D01*
X128609073Y-127252732D01*
X128574352Y-127250000D01*
X127925658Y-127250000D01*
X127925636Y-127250001D01*
X127890921Y-127252733D01*
X127742318Y-127295906D01*
X127742306Y-127295911D01*
X127683966Y-127330413D01*
X127683966Y-127330414D01*
X128205504Y-127851952D01*
X128136709Y-127880448D01*
X128080448Y-127936709D01*
X128050000Y-128010218D01*
X128050000Y-128489782D01*
X128080448Y-128563291D01*
X128136709Y-128619552D01*
X128205504Y-128648047D01*
X127683965Y-129169584D01*
X122316033Y-129169584D01*
X121794496Y-128648047D01*
X121863291Y-128619552D01*
X121919552Y-128563291D01*
X121950000Y-128489782D01*
X121950000Y-128249999D01*
X122103552Y-128249999D01*
X122103552Y-128250000D01*
X122614468Y-128760916D01*
X122622267Y-128734075D01*
X122624999Y-128699359D01*
X122624999Y-127800647D01*
X122624999Y-127800641D01*
X127375000Y-127800641D01*
X127375000Y-128699341D01*
X127375001Y-128699363D01*
X127377732Y-128734076D01*
X127377733Y-128734079D01*
X127385530Y-128760916D01*
X127896448Y-128250000D01*
X127385530Y-127739082D01*
X127385529Y-127739082D01*
X127377733Y-127765918D01*
X127377732Y-127765923D01*
X127375000Y-127800641D01*
X122624999Y-127800641D01*
X122622266Y-127765921D01*
X122614469Y-127739082D01*
X122103552Y-128249999D01*
X121950000Y-128249999D01*
X121950000Y-128010218D01*
X121919552Y-127936709D01*
X121863291Y-127880448D01*
X121794496Y-127851952D01*
X122316033Y-127330414D01*
X122316032Y-127330413D01*
X122257688Y-127295909D01*
X122257681Y-127295906D01*
X122109084Y-127252734D01*
X122109073Y-127252732D01*
X122074352Y-127250000D01*
X121425658Y-127250000D01*
X121425636Y-127250001D01*
X121390921Y-127252733D01*
X121242318Y-127295906D01*
X121242306Y-127295911D01*
X121183966Y-127330413D01*
X121183966Y-127330414D01*
X121705504Y-127851952D01*
X121636709Y-127880448D01*
X121580448Y-127936709D01*
X121550000Y-128010218D01*
X121550000Y-128489782D01*
X121580448Y-128563291D01*
X121636709Y-128619552D01*
X121705504Y-128648047D01*
X121183965Y-129169584D01*
X116713975Y-129169584D01*
X116831811Y-129120775D01*
X116946542Y-129044114D01*
X116946545Y-129044111D01*
X116953480Y-129037177D01*
X117044111Y-128946545D01*
X117044114Y-128946542D01*
X117120775Y-128831811D01*
X117173580Y-128704328D01*
X117185285Y-128645482D01*
X117200500Y-128568995D01*
X117200500Y-128431004D01*
X117173581Y-128295677D01*
X117173580Y-128295676D01*
X117173580Y-128295672D01*
X117173578Y-128295667D01*
X117120778Y-128168195D01*
X117120771Y-128168182D01*
X117044114Y-128053458D01*
X117044111Y-128053454D01*
X117036819Y-128046162D01*
X117022115Y-128019234D01*
X117005523Y-127993416D01*
X117004631Y-127987215D01*
X117003334Y-127984839D01*
X117000500Y-127958481D01*
X117000500Y-127800641D01*
X120875000Y-127800641D01*
X120875000Y-128699341D01*
X120875001Y-128699363D01*
X120877732Y-128734076D01*
X120877733Y-128734079D01*
X120885530Y-128760916D01*
X121396448Y-128250000D01*
X120885530Y-127739082D01*
X120885529Y-127739082D01*
X120877733Y-127765918D01*
X120877732Y-127765923D01*
X120875000Y-127800641D01*
X117000500Y-127800641D01*
X117000500Y-123742845D01*
X117020185Y-123675806D01*
X117072989Y-123630051D01*
X117142147Y-123620107D01*
X117205703Y-123649132D01*
X117212181Y-123655164D01*
X117301961Y-123744944D01*
X117301965Y-123744947D01*
X117448688Y-123835448D01*
X117448699Y-123835453D01*
X117612347Y-123889680D01*
X117713352Y-123899999D01*
X117750000Y-123899999D01*
X118250000Y-123899999D01*
X118286640Y-123899999D01*
X118286654Y-123899998D01*
X118387652Y-123889680D01*
X118551300Y-123835453D01*
X118551311Y-123835448D01*
X118698034Y-123744947D01*
X118698038Y-123744944D01*
X118819944Y-123623038D01*
X118819947Y-123623034D01*
X118910448Y-123476311D01*
X118910453Y-123476300D01*
X118964426Y-123313418D01*
X120974500Y-123313418D01*
X120974500Y-124186561D01*
X120974501Y-124186570D01*
X120981068Y-124247665D01*
X120987808Y-124265735D01*
X121032621Y-124385883D01*
X121121024Y-124503976D01*
X121239117Y-124592379D01*
X121239116Y-124592379D01*
X121377326Y-124643929D01*
X121377329Y-124643929D01*
X121377333Y-124643931D01*
X121438435Y-124650500D01*
X122061564Y-124650499D01*
X122122667Y-124643931D01*
X122260883Y-124592379D01*
X122378976Y-124503976D01*
X122467379Y-124385883D01*
X122512192Y-124265735D01*
X122518929Y-124247673D01*
X122518929Y-124247671D01*
X122518931Y-124247667D01*
X122523737Y-124202966D01*
X122525499Y-124186581D01*
X122525499Y-124186570D01*
X122525500Y-124186565D01*
X122525499Y-123313436D01*
X122518931Y-123252333D01*
X122467379Y-123114117D01*
X122378976Y-122996024D01*
X122282370Y-122923706D01*
X122260882Y-122907620D01*
X122260883Y-122907620D01*
X122122673Y-122856070D01*
X122122668Y-122856069D01*
X122061573Y-122849500D01*
X121438438Y-122849500D01*
X121438429Y-122849501D01*
X121377334Y-122856068D01*
X121239114Y-122907622D01*
X121121024Y-122996024D01*
X121032620Y-123114117D01*
X120981070Y-123252326D01*
X120981069Y-123252331D01*
X120974500Y-123313418D01*
X118964426Y-123313418D01*
X118964680Y-123312652D01*
X118966228Y-123297510D01*
X118966228Y-123297509D01*
X118974999Y-123211654D01*
X118975000Y-123211641D01*
X118975000Y-123162500D01*
X118250000Y-123162500D01*
X118250000Y-123899999D01*
X117750000Y-123899999D01*
X117750000Y-123036500D01*
X117769685Y-122969461D01*
X117822489Y-122923706D01*
X117874000Y-122912500D01*
X118000000Y-122912500D01*
X118000000Y-122786500D01*
X118019685Y-122719461D01*
X118072489Y-122673706D01*
X118124000Y-122662500D01*
X118974999Y-122662500D01*
X118974999Y-122613360D01*
X118974998Y-122613345D01*
X118964680Y-122512347D01*
X118910453Y-122348699D01*
X118910448Y-122348688D01*
X118819947Y-122201965D01*
X118819944Y-122201961D01*
X118710193Y-122092210D01*
X118639914Y-122044033D01*
X118619646Y-122019187D01*
X118598203Y-121995346D01*
X118597705Y-121992290D01*
X118595749Y-121989892D01*
X118592130Y-121958028D01*
X118586982Y-121926384D01*
X118588215Y-121923545D01*
X118587866Y-121920468D01*
X118602050Y-121891703D01*
X118614826Y-121862302D01*
X118618114Y-121859130D01*
X118618768Y-121857804D01*
X118620681Y-121856652D01*
X118626257Y-121851273D01*
X118626127Y-121851143D01*
X118745621Y-121731648D01*
X118745626Y-121731643D01*
X118827681Y-121592894D01*
X118872654Y-121438098D01*
X118875500Y-121401935D01*
X118875499Y-120901617D01*
X123250000Y-120901617D01*
X123250000Y-121098382D01*
X123280778Y-121292705D01*
X123341581Y-121479835D01*
X123430905Y-121655145D01*
X123456319Y-121690125D01*
X123456320Y-121690125D01*
X124125000Y-121021445D01*
X124125000Y-121049370D01*
X124150556Y-121144745D01*
X124199925Y-121230255D01*
X124269745Y-121300075D01*
X124355255Y-121349444D01*
X124450630Y-121375000D01*
X124478553Y-121375000D01*
X123809873Y-122043677D01*
X123809873Y-122043678D01*
X123844858Y-122069096D01*
X124020164Y-122158418D01*
X124207294Y-122219221D01*
X124401618Y-122250000D01*
X124598382Y-122250000D01*
X124792705Y-122219221D01*
X124979835Y-122158418D01*
X125155143Y-122069095D01*
X125190125Y-122043678D01*
X125190126Y-122043678D01*
X124521448Y-121375000D01*
X124549370Y-121375000D01*
X124644745Y-121349444D01*
X124730255Y-121300075D01*
X124800075Y-121230255D01*
X124849444Y-121144745D01*
X124875000Y-121049370D01*
X124875000Y-121021448D01*
X125543678Y-121690126D01*
X125543678Y-121690125D01*
X125569095Y-121655143D01*
X125658418Y-121479835D01*
X125719221Y-121292705D01*
X125750000Y-121098382D01*
X125750000Y-120901617D01*
X125719221Y-120707294D01*
X125658418Y-120520164D01*
X125569096Y-120344858D01*
X125543678Y-120309873D01*
X125543677Y-120309873D01*
X124875000Y-120978551D01*
X124875000Y-120950630D01*
X124849444Y-120855255D01*
X124800075Y-120769745D01*
X124730255Y-120699925D01*
X124644745Y-120650556D01*
X124549370Y-120625000D01*
X124521447Y-120625000D01*
X125190125Y-119956320D01*
X125190125Y-119956319D01*
X125155145Y-119930905D01*
X124979835Y-119841581D01*
X124792705Y-119780778D01*
X124598382Y-119750000D01*
X124401618Y-119750000D01*
X124207294Y-119780778D01*
X124020161Y-119841582D01*
X123844863Y-119930899D01*
X123844859Y-119930902D01*
X123809873Y-119956320D01*
X123809872Y-119956320D01*
X124478554Y-120625000D01*
X124450630Y-120625000D01*
X124355255Y-120650556D01*
X124269745Y-120699925D01*
X124199925Y-120769745D01*
X124150556Y-120855255D01*
X124125000Y-120950630D01*
X124125000Y-120978552D01*
X123456320Y-120309872D01*
X123456320Y-120309873D01*
X123430902Y-120344859D01*
X123430899Y-120344863D01*
X123341582Y-120520161D01*
X123280778Y-120707294D01*
X123250000Y-120901617D01*
X118875499Y-120901617D01*
X118875499Y-120773066D01*
X118872654Y-120736902D01*
X118827681Y-120582106D01*
X118788604Y-120516030D01*
X118745630Y-120443363D01*
X118745621Y-120443351D01*
X118631648Y-120329378D01*
X118631645Y-120329376D01*
X118631643Y-120329374D01*
X118597654Y-120309273D01*
X118561379Y-120287820D01*
X118553628Y-120279519D01*
X118543297Y-120274801D01*
X118530211Y-120254439D01*
X118513696Y-120236751D01*
X118510686Y-120224058D01*
X118505523Y-120216023D01*
X118500500Y-120181088D01*
X118500500Y-118641976D01*
X118520185Y-118574937D01*
X118572989Y-118529182D01*
X118600135Y-118521736D01*
X118599932Y-118520876D01*
X118607479Y-118519092D01*
X118607481Y-118519091D01*
X118607483Y-118519091D01*
X118742331Y-118468796D01*
X118857546Y-118382546D01*
X118943796Y-118267331D01*
X118994091Y-118132483D01*
X119000500Y-118072873D01*
X119000499Y-117777128D01*
X118994091Y-117717517D01*
X118966421Y-117643332D01*
X118960846Y-117576528D01*
X118962805Y-117566364D01*
X118994091Y-117482483D01*
X119000500Y-117422873D01*
X119000499Y-117370829D01*
X119002741Y-117359204D01*
X119013541Y-117338254D01*
X119020182Y-117315639D01*
X119029256Y-117307775D01*
X119034759Y-117297103D01*
X119055172Y-117285318D01*
X119072985Y-117269883D01*
X119084869Y-117268173D01*
X119095270Y-117262170D01*
X119118814Y-117263292D01*
X119142143Y-117259938D01*
X119153066Y-117264926D01*
X119165060Y-117265498D01*
X119184257Y-117279169D01*
X119205700Y-117288961D01*
X119212180Y-117294995D01*
X120165476Y-118248291D01*
X120198961Y-118309614D01*
X120201413Y-118326242D01*
X120202346Y-118338099D01*
X120247317Y-118492889D01*
X120247320Y-118492896D01*
X120329369Y-118631636D01*
X120329373Y-118631641D01*
X120329373Y-118631642D01*
X120329378Y-118631648D01*
X120443351Y-118745621D01*
X120443355Y-118745624D01*
X120443357Y-118745626D01*
X120443360Y-118745627D01*
X120443363Y-118745630D01*
X120535856Y-118800329D01*
X120582106Y-118827681D01*
X120622928Y-118839541D01*
X120736897Y-118872653D01*
X120736900Y-118872653D01*
X120736902Y-118872654D01*
X120773065Y-118875500D01*
X121401934Y-118875499D01*
X121438098Y-118872654D01*
X121592894Y-118827681D01*
X121731643Y-118745626D01*
X121845626Y-118631643D01*
X121893269Y-118551082D01*
X121944336Y-118503400D01*
X122013078Y-118490896D01*
X122077667Y-118517541D01*
X122106730Y-118551080D01*
X122154374Y-118631643D01*
X122154376Y-118631645D01*
X122154378Y-118631648D01*
X122268351Y-118745621D01*
X122268355Y-118745624D01*
X122268357Y-118745626D01*
X122268360Y-118745627D01*
X122268363Y-118745630D01*
X122360856Y-118800329D01*
X122407106Y-118827681D01*
X122447928Y-118839541D01*
X122561897Y-118872653D01*
X122561900Y-118872653D01*
X122561902Y-118872654D01*
X122598065Y-118875500D01*
X123226934Y-118875499D01*
X123263098Y-118872654D01*
X123417894Y-118827681D01*
X123556643Y-118745626D01*
X123670626Y-118631643D01*
X123752681Y-118492894D01*
X123760211Y-118466975D01*
X123797813Y-118408093D01*
X123803806Y-118403190D01*
X123807302Y-118400506D01*
X123807314Y-118400500D01*
X125269995Y-116937819D01*
X125331318Y-116904334D01*
X125353935Y-116901902D01*
X125356983Y-116901500D01*
X125356992Y-116901500D01*
X125484286Y-116867392D01*
X125598414Y-116801500D01*
X125746550Y-116653364D01*
X125863095Y-116536819D01*
X125924418Y-116503334D01*
X125950776Y-116500500D01*
X128375500Y-116500500D01*
X128384185Y-116503050D01*
X128393147Y-116501762D01*
X128417187Y-116512740D01*
X128442539Y-116520185D01*
X128448466Y-116527025D01*
X128456703Y-116530787D01*
X128470992Y-116553021D01*
X128488294Y-116572989D01*
X128490581Y-116583503D01*
X128494477Y-116589565D01*
X128499500Y-116624500D01*
X128499500Y-116653824D01*
X128479815Y-116720863D01*
X128463181Y-116741505D01*
X128116504Y-117088181D01*
X128055181Y-117121666D01*
X128028823Y-117124500D01*
X127598077Y-117124500D01*
X127598052Y-117124501D01*
X127561901Y-117127346D01*
X127407110Y-117172317D01*
X127407103Y-117172320D01*
X127268363Y-117254369D01*
X127268351Y-117254378D01*
X127154378Y-117368351D01*
X127154372Y-117368359D01*
X127106732Y-117448916D01*
X127055663Y-117496599D01*
X126986922Y-117509103D01*
X126922332Y-117482458D01*
X126893268Y-117448916D01*
X126857037Y-117387652D01*
X126845626Y-117368357D01*
X126845624Y-117368355D01*
X126845621Y-117368351D01*
X126731648Y-117254378D01*
X126731636Y-117254369D01*
X126592896Y-117172320D01*
X126592889Y-117172317D01*
X126438102Y-117127346D01*
X126438096Y-117127345D01*
X126401935Y-117124500D01*
X125773077Y-117124500D01*
X125773052Y-117124501D01*
X125736901Y-117127346D01*
X125582110Y-117172317D01*
X125582103Y-117172320D01*
X125443363Y-117254369D01*
X125443351Y-117254378D01*
X125329378Y-117368351D01*
X125329369Y-117368363D01*
X125247320Y-117507103D01*
X125247317Y-117507110D01*
X125202346Y-117661897D01*
X125202345Y-117661903D01*
X125199500Y-117698057D01*
X125199500Y-118301922D01*
X125199501Y-118301947D01*
X125202346Y-118338098D01*
X125247317Y-118492889D01*
X125247320Y-118492896D01*
X125329369Y-118631636D01*
X125329373Y-118631641D01*
X125329373Y-118631642D01*
X125329378Y-118631648D01*
X125443351Y-118745621D01*
X125443355Y-118745624D01*
X125443357Y-118745626D01*
X125443360Y-118745627D01*
X125443363Y-118745630D01*
X125535856Y-118800329D01*
X125582106Y-118827681D01*
X125622928Y-118839541D01*
X125736897Y-118872653D01*
X125736900Y-118872653D01*
X125736902Y-118872654D01*
X125773065Y-118875500D01*
X126203823Y-118875499D01*
X126270862Y-118895183D01*
X126291504Y-118911818D01*
X127713181Y-120333495D01*
X127746666Y-120394818D01*
X127749500Y-120421176D01*
X127749500Y-122837778D01*
X127729815Y-122904817D01*
X127699811Y-122937045D01*
X127621024Y-122996024D01*
X127532620Y-123114117D01*
X127481070Y-123252326D01*
X127481069Y-123252331D01*
X127474500Y-123313418D01*
X127474500Y-124186561D01*
X127474501Y-124186570D01*
X127481068Y-124247665D01*
X127487808Y-124265735D01*
X127532621Y-124385883D01*
X127621024Y-124503976D01*
X127739117Y-124592379D01*
X127739116Y-124592379D01*
X127877326Y-124643929D01*
X127877329Y-124643929D01*
X127877333Y-124643931D01*
X127938435Y-124650500D01*
X128561564Y-124650499D01*
X128622667Y-124643931D01*
X128760883Y-124592379D01*
X128878976Y-124503976D01*
X128967379Y-124385883D01*
X129012192Y-124265735D01*
X129018929Y-124247673D01*
X129018929Y-124247671D01*
X129018931Y-124247667D01*
X129023737Y-124202966D01*
X129025499Y-124186581D01*
X129025499Y-124186570D01*
X129025500Y-124186565D01*
X129025499Y-123313436D01*
X129018931Y-123252333D01*
X128967379Y-123114117D01*
X128878976Y-122996024D01*
X128800188Y-122937044D01*
X128758318Y-122881111D01*
X128750500Y-122837778D01*
X128750500Y-120096610D01*
X128750500Y-120096608D01*
X128716392Y-119969314D01*
X128650500Y-119855186D01*
X128557314Y-119762000D01*
X127882494Y-119087180D01*
X127849009Y-119025857D01*
X127853993Y-118956165D01*
X127895865Y-118900232D01*
X127961329Y-118875815D01*
X127970175Y-118875499D01*
X128226922Y-118875499D01*
X128226934Y-118875499D01*
X128263098Y-118872654D01*
X128417894Y-118827681D01*
X128556643Y-118745626D01*
X128670626Y-118631643D01*
X128752681Y-118492894D01*
X128797654Y-118338098D01*
X128800500Y-118301935D01*
X128800499Y-117871174D01*
X128820183Y-117804136D01*
X128836814Y-117783498D01*
X129287819Y-117332492D01*
X129349142Y-117299008D01*
X129418834Y-117303992D01*
X129474767Y-117345864D01*
X129499184Y-117411328D01*
X129499500Y-117420174D01*
X129499500Y-129375500D01*
X129479815Y-129442539D01*
X129427011Y-129488294D01*
X129375500Y-129499500D01*
X100624500Y-129499500D01*
X100557461Y-129479815D01*
X100511706Y-129427011D01*
X100500500Y-129375500D01*
X100500500Y-114698057D01*
X101199500Y-114698057D01*
X101199500Y-115301922D01*
X101199501Y-115301947D01*
X101202346Y-115338098D01*
X101247317Y-115492889D01*
X101247320Y-115492896D01*
X101329369Y-115631636D01*
X101329378Y-115631648D01*
X101443351Y-115745621D01*
X101443355Y-115745624D01*
X101443357Y-115745626D01*
X101443360Y-115745627D01*
X101443363Y-115745630D01*
X101563620Y-115816749D01*
X101571370Y-115825049D01*
X101581703Y-115829768D01*
X101594788Y-115850129D01*
X101611304Y-115867817D01*
X101614313Y-115880511D01*
X101619477Y-115888546D01*
X101624500Y-115923481D01*
X101624500Y-116076519D01*
X101604815Y-116143558D01*
X101563620Y-116183251D01*
X101443363Y-116254369D01*
X101443351Y-116254378D01*
X101329378Y-116368351D01*
X101329369Y-116368363D01*
X101247320Y-116507103D01*
X101247317Y-116507110D01*
X101202346Y-116661897D01*
X101202345Y-116661903D01*
X101199500Y-116698057D01*
X101199500Y-117301922D01*
X101199501Y-117301947D01*
X101202346Y-117338098D01*
X101247317Y-117492889D01*
X101247320Y-117492896D01*
X101329369Y-117631636D01*
X101329378Y-117631648D01*
X101443351Y-117745621D01*
X101443355Y-117745624D01*
X101443357Y-117745626D01*
X101443360Y-117745627D01*
X101443363Y-117745630D01*
X101496628Y-117777130D01*
X101582106Y-117827681D01*
X101622928Y-117839541D01*
X101736897Y-117872653D01*
X101736900Y-117872653D01*
X101736902Y-117872654D01*
X101773065Y-117875500D01*
X102401934Y-117875499D01*
X102438098Y-117872654D01*
X102592894Y-117827681D01*
X102731643Y-117745626D01*
X102779235Y-117698034D01*
X102851143Y-117626127D01*
X102852644Y-117627628D01*
X102900394Y-117593127D01*
X102970160Y-117589322D01*
X103030908Y-117623839D01*
X103047295Y-117644927D01*
X103080054Y-117698037D01*
X103201961Y-117819944D01*
X103201965Y-117819947D01*
X103348688Y-117910448D01*
X103348699Y-117910453D01*
X103512347Y-117964680D01*
X103613351Y-117974999D01*
X104162500Y-117974999D01*
X104211640Y-117974999D01*
X104211654Y-117974998D01*
X104312652Y-117964680D01*
X104476300Y-117910453D01*
X104476311Y-117910448D01*
X104623034Y-117819947D01*
X104623038Y-117819944D01*
X104744944Y-117698038D01*
X104744947Y-117698034D01*
X104835448Y-117551311D01*
X104835453Y-117551300D01*
X104889680Y-117387652D01*
X104899999Y-117286654D01*
X104900000Y-117286641D01*
X104900000Y-117250000D01*
X104162500Y-117250000D01*
X104162500Y-117974999D01*
X103613351Y-117974999D01*
X103662499Y-117974998D01*
X103662500Y-117974998D01*
X103662500Y-117124000D01*
X103682185Y-117056961D01*
X103734989Y-117011206D01*
X103786500Y-117000000D01*
X103912500Y-117000000D01*
X103912500Y-116874000D01*
X103932185Y-116806961D01*
X103984989Y-116761206D01*
X104036500Y-116750000D01*
X104899999Y-116750000D01*
X104899999Y-116713360D01*
X104899998Y-116713345D01*
X104889680Y-116612347D01*
X104835453Y-116448699D01*
X104835448Y-116448688D01*
X104744947Y-116301965D01*
X104744944Y-116301961D01*
X104623038Y-116180055D01*
X104623034Y-116180052D01*
X104476311Y-116089551D01*
X104476300Y-116089546D01*
X104406621Y-116066457D01*
X104349176Y-116026684D01*
X104322353Y-115962168D01*
X104334668Y-115893393D01*
X104382211Y-115842193D01*
X104411032Y-115829674D01*
X104417894Y-115827681D01*
X104556643Y-115745626D01*
X104670626Y-115631643D01*
X104752681Y-115492894D01*
X104787078Y-115374501D01*
X104797653Y-115338102D01*
X104797654Y-115338096D01*
X104800499Y-115301942D01*
X104800500Y-115301935D01*
X104800499Y-114958674D01*
X104820183Y-114891636D01*
X104836813Y-114870999D01*
X106445995Y-113261819D01*
X106507318Y-113228334D01*
X106533676Y-113225500D01*
X109767324Y-113225500D01*
X109834363Y-113245185D01*
X109880118Y-113297989D01*
X109890062Y-113367147D01*
X109861037Y-113430703D01*
X109855005Y-113437181D01*
X109204003Y-114088181D01*
X109142680Y-114121666D01*
X109116322Y-114124500D01*
X108523077Y-114124500D01*
X108523052Y-114124501D01*
X108486901Y-114127346D01*
X108332110Y-114172317D01*
X108332103Y-114172320D01*
X108193363Y-114254369D01*
X108193351Y-114254378D01*
X108087681Y-114360049D01*
X108026358Y-114393534D01*
X107956666Y-114388550D01*
X107912319Y-114360049D01*
X107806648Y-114254378D01*
X107806636Y-114254369D01*
X107667896Y-114172320D01*
X107667889Y-114172317D01*
X107513102Y-114127346D01*
X107513096Y-114127345D01*
X107476935Y-114124500D01*
X106773077Y-114124500D01*
X106773052Y-114124501D01*
X106736901Y-114127346D01*
X106582110Y-114172317D01*
X106582103Y-114172320D01*
X106443363Y-114254369D01*
X106443351Y-114254378D01*
X106329378Y-114368351D01*
X106329369Y-114368363D01*
X106247320Y-114507103D01*
X106247317Y-114507110D01*
X106202346Y-114661897D01*
X106202345Y-114661903D01*
X106199500Y-114698057D01*
X106199500Y-115301922D01*
X106199501Y-115301947D01*
X106202346Y-115338098D01*
X106247317Y-115492889D01*
X106247320Y-115492896D01*
X106329369Y-115631636D01*
X106329378Y-115631648D01*
X106443351Y-115745621D01*
X106443355Y-115745624D01*
X106443357Y-115745626D01*
X106443360Y-115745627D01*
X106443363Y-115745630D01*
X106563620Y-115816749D01*
X106571370Y-115825049D01*
X106581703Y-115829768D01*
X106594788Y-115850129D01*
X106611304Y-115867817D01*
X106614313Y-115880511D01*
X106619477Y-115888546D01*
X106624500Y-115923481D01*
X106624500Y-116076519D01*
X106604815Y-116143558D01*
X106563620Y-116183251D01*
X106443363Y-116254369D01*
X106443351Y-116254378D01*
X106329378Y-116368351D01*
X106329369Y-116368363D01*
X106247320Y-116507103D01*
X106247317Y-116507110D01*
X106202346Y-116661897D01*
X106202345Y-116661903D01*
X106199500Y-116698057D01*
X106199500Y-117301922D01*
X106199501Y-117301947D01*
X106202346Y-117338098D01*
X106247317Y-117492889D01*
X106247320Y-117492896D01*
X106329369Y-117631636D01*
X106329378Y-117631648D01*
X106443351Y-117745621D01*
X106443355Y-117745624D01*
X106443357Y-117745626D01*
X106443360Y-117745627D01*
X106443363Y-117745630D01*
X106496628Y-117777130D01*
X106582106Y-117827681D01*
X106622928Y-117839541D01*
X106736897Y-117872653D01*
X106736900Y-117872653D01*
X106736902Y-117872654D01*
X106773065Y-117875500D01*
X107401934Y-117875499D01*
X107438098Y-117872654D01*
X107592894Y-117827681D01*
X107731643Y-117745626D01*
X107779235Y-117698034D01*
X107851143Y-117626127D01*
X107852644Y-117627628D01*
X107900394Y-117593127D01*
X107970160Y-117589322D01*
X108030908Y-117623839D01*
X108047295Y-117644927D01*
X108080054Y-117698037D01*
X108201961Y-117819944D01*
X108201965Y-117819947D01*
X108348688Y-117910448D01*
X108348699Y-117910453D01*
X108512347Y-117964680D01*
X108613351Y-117974999D01*
X108662499Y-117974998D01*
X108662500Y-117974998D01*
X108662500Y-117124000D01*
X108682185Y-117056961D01*
X108734989Y-117011206D01*
X108786500Y-117000000D01*
X108912500Y-117000000D01*
X108912500Y-116874000D01*
X108932185Y-116806961D01*
X108984989Y-116761206D01*
X109036500Y-116750000D01*
X109899999Y-116750000D01*
X109899999Y-116713360D01*
X109899998Y-116713345D01*
X109889680Y-116612347D01*
X109835453Y-116448699D01*
X109835448Y-116448688D01*
X109744947Y-116301965D01*
X109744944Y-116301961D01*
X109623038Y-116180055D01*
X109623034Y-116180052D01*
X109476311Y-116089551D01*
X109476300Y-116089546D01*
X109406621Y-116066457D01*
X109349176Y-116026684D01*
X109322353Y-115962168D01*
X109334668Y-115893393D01*
X109382211Y-115842193D01*
X109411032Y-115829674D01*
X109417894Y-115827681D01*
X109556643Y-115745626D01*
X109670626Y-115631643D01*
X109752681Y-115492894D01*
X109787078Y-115374501D01*
X109797653Y-115338102D01*
X109797654Y-115338096D01*
X109800499Y-115301942D01*
X109800500Y-115301935D01*
X109800499Y-114958674D01*
X109820183Y-114891636D01*
X109836813Y-114870999D01*
X110787821Y-113919992D01*
X110806725Y-113909670D01*
X110822866Y-113895400D01*
X110836784Y-113893256D01*
X110849142Y-113886509D01*
X110870628Y-113888045D01*
X110891922Y-113884767D01*
X110904788Y-113890488D01*
X110918834Y-113891493D01*
X110936080Y-113904403D01*
X110955764Y-113913157D01*
X110963494Y-113924926D01*
X110974767Y-113933365D01*
X110982294Y-113953547D01*
X110994123Y-113971555D01*
X110997518Y-113994363D01*
X110999184Y-113998829D01*
X110999494Y-114006438D01*
X110999500Y-114007083D01*
X110999501Y-114172872D01*
X111001323Y-114189828D01*
X111001384Y-114195862D01*
X110993448Y-114223919D01*
X110988271Y-114252609D01*
X110982913Y-114261167D01*
X110982369Y-114263094D01*
X110980889Y-114264402D01*
X110976188Y-114271912D01*
X110975900Y-114272410D01*
X110915444Y-114418368D01*
X110907987Y-114475000D01*
X111091103Y-114475000D01*
X111112131Y-114481174D01*
X111133999Y-114482656D01*
X111153760Y-114493398D01*
X111158142Y-114494685D01*
X111165039Y-114499454D01*
X111165185Y-114499562D01*
X111257669Y-114568796D01*
X111259136Y-114569343D01*
X111267364Y-114575454D01*
X111283417Y-114596731D01*
X111302264Y-114615580D01*
X111304136Y-114624192D01*
X111309446Y-114631229D01*
X111311447Y-114657812D01*
X111317111Y-114683854D01*
X111314030Y-114692110D01*
X111314693Y-114700902D01*
X111302004Y-114724347D01*
X111292690Y-114749317D01*
X111284785Y-114756166D01*
X111281439Y-114762350D01*
X111271032Y-114768083D01*
X111263690Y-114774445D01*
X111264770Y-114775888D01*
X111257669Y-114781204D01*
X111165413Y-114850266D01*
X111099950Y-114874684D01*
X111091103Y-114875000D01*
X110907990Y-114875000D01*
X110907988Y-114875001D01*
X110915442Y-114931627D01*
X110915443Y-114931630D01*
X110933561Y-114975370D01*
X110941030Y-115044840D01*
X110909755Y-115107319D01*
X110906682Y-115110504D01*
X110851032Y-115166155D01*
X110692686Y-115324501D01*
X110599502Y-115417684D01*
X110599500Y-115417687D01*
X110533608Y-115531813D01*
X110499500Y-115659109D01*
X110499500Y-116674223D01*
X110479815Y-116741262D01*
X110463181Y-116761904D01*
X110011404Y-117213681D01*
X109950081Y-117247166D01*
X109923723Y-117250000D01*
X109162500Y-117250000D01*
X109162500Y-117974999D01*
X109211640Y-117974999D01*
X109211654Y-117974998D01*
X109312651Y-117964680D01*
X109336493Y-117956780D01*
X109406321Y-117954377D01*
X109466364Y-117990107D01*
X109497558Y-118052626D01*
X109499500Y-118074485D01*
X109499500Y-118375500D01*
X109479815Y-118442539D01*
X109427011Y-118488294D01*
X109375500Y-118499500D01*
X105434108Y-118499500D01*
X105306812Y-118533608D01*
X105192686Y-118599500D01*
X105192683Y-118599502D01*
X105099502Y-118692683D01*
X105099500Y-118692686D01*
X105033608Y-118806812D01*
X104999500Y-118934108D01*
X104999500Y-119492324D01*
X104979815Y-119559363D01*
X104927011Y-119605118D01*
X104857853Y-119615062D01*
X104794297Y-119586037D01*
X104787819Y-119580005D01*
X104769816Y-119562002D01*
X104769814Y-119562000D01*
X104712750Y-119529054D01*
X104655687Y-119496108D01*
X104592039Y-119479054D01*
X104528392Y-119462000D01*
X104528391Y-119462000D01*
X104198143Y-119462000D01*
X104131104Y-119442315D01*
X104085349Y-119389511D01*
X104079067Y-119372596D01*
X104076745Y-119364605D01*
X104076744Y-119364603D01*
X104076744Y-119364602D01*
X103993081Y-119223135D01*
X103993079Y-119223133D01*
X103993076Y-119223129D01*
X103876870Y-119106923D01*
X103876862Y-119106917D01*
X103735396Y-119023255D01*
X103735393Y-119023254D01*
X103577573Y-118977402D01*
X103577567Y-118977401D01*
X103540701Y-118974500D01*
X103540694Y-118974500D01*
X102459306Y-118974500D01*
X102459298Y-118974500D01*
X102422432Y-118977401D01*
X102422426Y-118977402D01*
X102264606Y-119023254D01*
X102264603Y-119023255D01*
X102123137Y-119106917D01*
X102123129Y-119106923D01*
X102006923Y-119223129D01*
X102006917Y-119223137D01*
X101923255Y-119364603D01*
X101923254Y-119364606D01*
X101877402Y-119522426D01*
X101877401Y-119522432D01*
X101874500Y-119559298D01*
X101874500Y-120365701D01*
X101877401Y-120402567D01*
X101877402Y-120402573D01*
X101923254Y-120560393D01*
X101923255Y-120560396D01*
X101923256Y-120560398D01*
X101940156Y-120588974D01*
X102006917Y-120701862D01*
X102006923Y-120701870D01*
X102123129Y-120818076D01*
X102123132Y-120818078D01*
X102123135Y-120818081D01*
X102152192Y-120835265D01*
X102199875Y-120886332D01*
X102212381Y-120955073D01*
X102185736Y-121019663D01*
X102154170Y-121047535D01*
X102056656Y-121107682D01*
X101932684Y-121231654D01*
X101840643Y-121380875D01*
X101840641Y-121380880D01*
X101785494Y-121547302D01*
X101785493Y-121547309D01*
X101775000Y-121650013D01*
X101775000Y-121787500D01*
X104224999Y-121787500D01*
X104224999Y-121650028D01*
X104224998Y-121650013D01*
X104214505Y-121547302D01*
X104159358Y-121380880D01*
X104159356Y-121380875D01*
X104067315Y-121231654D01*
X103943344Y-121107683D01*
X103943340Y-121107680D01*
X103845830Y-121047535D01*
X103799105Y-120995588D01*
X103787884Y-120926625D01*
X103815727Y-120862543D01*
X103847806Y-120835266D01*
X103876865Y-120818081D01*
X103993081Y-120701865D01*
X104076744Y-120560398D01*
X104077307Y-120558456D01*
X104079067Y-120552404D01*
X104093381Y-120529990D01*
X104104430Y-120505797D01*
X104111896Y-120500998D01*
X104116674Y-120493518D01*
X104140835Y-120482401D01*
X104163208Y-120468023D01*
X104176118Y-120466166D01*
X104180147Y-120464313D01*
X104198143Y-120463000D01*
X104203824Y-120463000D01*
X104270863Y-120482685D01*
X104291505Y-120499319D01*
X104963181Y-121170995D01*
X104996666Y-121232318D01*
X104999500Y-121258676D01*
X104999500Y-122241323D01*
X104979815Y-122308362D01*
X104963181Y-122329004D01*
X103778189Y-123513995D01*
X103716866Y-123547480D01*
X103647174Y-123542496D01*
X103617622Y-123526632D01*
X103602994Y-123516004D01*
X103441639Y-123433788D01*
X103441636Y-123433787D01*
X103269410Y-123377829D01*
X103229274Y-123371472D01*
X103166140Y-123341542D01*
X103129209Y-123282231D01*
X103130207Y-123212368D01*
X103168817Y-123154136D01*
X103232781Y-123126022D01*
X103248673Y-123124999D01*
X103524971Y-123124999D01*
X103524987Y-123124998D01*
X103627697Y-123114505D01*
X103794119Y-123059358D01*
X103794124Y-123059356D01*
X103943345Y-122967315D01*
X104067315Y-122843345D01*
X104159356Y-122694124D01*
X104159358Y-122694119D01*
X104214505Y-122527697D01*
X104214506Y-122527690D01*
X104224999Y-122424986D01*
X104225000Y-122424973D01*
X104225000Y-122287500D01*
X101775001Y-122287500D01*
X101775001Y-122424986D01*
X101785494Y-122527697D01*
X101840641Y-122694119D01*
X101840643Y-122694124D01*
X101932684Y-122843345D01*
X102056654Y-122967315D01*
X102205875Y-123059356D01*
X102205880Y-123059358D01*
X102372302Y-123114505D01*
X102372309Y-123114506D01*
X102475019Y-123124999D01*
X102751323Y-123124999D01*
X102818362Y-123144683D01*
X102864117Y-123197487D01*
X102874061Y-123266646D01*
X102845036Y-123330201D01*
X102786258Y-123367976D01*
X102770723Y-123371472D01*
X102730588Y-123377829D01*
X102558363Y-123433787D01*
X102558360Y-123433788D01*
X102397002Y-123516006D01*
X102250505Y-123622441D01*
X102250500Y-123622445D01*
X102122445Y-123750500D01*
X102122441Y-123750505D01*
X102016006Y-123897002D01*
X101933788Y-124058360D01*
X101933787Y-124058363D01*
X101877829Y-124230589D01*
X101849500Y-124409448D01*
X101849500Y-124590551D01*
X101877829Y-124769410D01*
X101933787Y-124941636D01*
X101933788Y-124941639D01*
X101989664Y-125051300D01*
X102014478Y-125100000D01*
X102016006Y-125102997D01*
X102122441Y-125249494D01*
X102122445Y-125249499D01*
X102250500Y-125377554D01*
X102250505Y-125377558D01*
X102341071Y-125443357D01*
X102397006Y-125483996D01*
X102502484Y-125537740D01*
X102558360Y-125566211D01*
X102558363Y-125566212D01*
X102628419Y-125588974D01*
X102730591Y-125622171D01*
X102813429Y-125635291D01*
X102909449Y-125650500D01*
X102909454Y-125650500D01*
X103090551Y-125650500D01*
X103177259Y-125636765D01*
X103269409Y-125622171D01*
X103441639Y-125566211D01*
X103602994Y-125483996D01*
X103749501Y-125377553D01*
X103877553Y-125249501D01*
X103983996Y-125102994D01*
X104066211Y-124941639D01*
X104122171Y-124769409D01*
X104145232Y-124623808D01*
X104150452Y-124590852D01*
X104180381Y-124527717D01*
X104185226Y-124522587D01*
X105900500Y-122807314D01*
X105966392Y-122693186D01*
X106000500Y-122565893D01*
X106000500Y-122434108D01*
X106000500Y-122211654D01*
X107025001Y-122211654D01*
X107035319Y-122312652D01*
X107089546Y-122476300D01*
X107089551Y-122476311D01*
X107180052Y-122623034D01*
X107180055Y-122623038D01*
X107301961Y-122744944D01*
X107301965Y-122744947D01*
X107448688Y-122835448D01*
X107448699Y-122835453D01*
X107612347Y-122889680D01*
X107713352Y-122899999D01*
X107750000Y-122899999D01*
X107750000Y-122112500D01*
X107025001Y-122112500D01*
X107025001Y-122211654D01*
X106000500Y-122211654D01*
X106000500Y-120934108D01*
X106000500Y-119624500D01*
X106020185Y-119557461D01*
X106072989Y-119511706D01*
X106124500Y-119500500D01*
X107030875Y-119500500D01*
X107097914Y-119520185D01*
X107143669Y-119572989D01*
X107153613Y-119642147D01*
X107149951Y-119659095D01*
X107127346Y-119736897D01*
X107127345Y-119736903D01*
X107124500Y-119773057D01*
X107124500Y-120501922D01*
X107124501Y-120501947D01*
X107127346Y-120538098D01*
X107172317Y-120692889D01*
X107172320Y-120692896D01*
X107254369Y-120831636D01*
X107254378Y-120831648D01*
X107264692Y-120841962D01*
X107298177Y-120903285D01*
X107293193Y-120972977D01*
X107264693Y-121017324D01*
X107180052Y-121101965D01*
X107089551Y-121248688D01*
X107089546Y-121248699D01*
X107035319Y-121412347D01*
X107025000Y-121513345D01*
X107025000Y-121612500D01*
X108974999Y-121612500D01*
X108974999Y-121513360D01*
X108974998Y-121513345D01*
X108964680Y-121412347D01*
X108910453Y-121248699D01*
X108910448Y-121248688D01*
X108819947Y-121101965D01*
X108819944Y-121101961D01*
X108735307Y-121017324D01*
X108701822Y-120956001D01*
X108706806Y-120886309D01*
X108735310Y-120841959D01*
X108745622Y-120831647D01*
X108745626Y-120831643D01*
X108827681Y-120692894D01*
X108872654Y-120538098D01*
X108875500Y-120501935D01*
X108875499Y-119773066D01*
X108872654Y-119736902D01*
X108850049Y-119659095D01*
X108850248Y-119589226D01*
X108888190Y-119530556D01*
X108951828Y-119501712D01*
X108969125Y-119500500D01*
X109776500Y-119500500D01*
X109843539Y-119520185D01*
X109889294Y-119572989D01*
X109900500Y-119624500D01*
X109900500Y-121273223D01*
X109880815Y-121340262D01*
X109864181Y-121360904D01*
X109131473Y-122093611D01*
X109070150Y-122127096D01*
X109000458Y-122122112D01*
X108985502Y-122112500D01*
X108250000Y-122112500D01*
X108250000Y-122923723D01*
X108230315Y-122990762D01*
X108213681Y-123011404D01*
X107761905Y-123463181D01*
X107700582Y-123496666D01*
X107674224Y-123499500D01*
X107164108Y-123499500D01*
X107036812Y-123533608D01*
X106922686Y-123599500D01*
X106922683Y-123599502D01*
X106352704Y-124169481D01*
X106291381Y-124202966D01*
X106265023Y-124205800D01*
X106151773Y-124205800D01*
X105998347Y-124236318D01*
X105998339Y-124236320D01*
X105853808Y-124296187D01*
X105853798Y-124296192D01*
X105723727Y-124383103D01*
X105723723Y-124383106D01*
X105613106Y-124493723D01*
X105613103Y-124493727D01*
X105526192Y-124623798D01*
X105526187Y-124623808D01*
X105466320Y-124768339D01*
X105466318Y-124768345D01*
X105446337Y-124868798D01*
X105413952Y-124930709D01*
X105353236Y-124965283D01*
X105283467Y-124961543D01*
X105277268Y-124959167D01*
X105177548Y-124917862D01*
X105177544Y-124917860D01*
X105177542Y-124917860D01*
X105177538Y-124917859D01*
X105177534Y-124917858D01*
X105033459Y-124889200D01*
X105033455Y-124889200D01*
X104886545Y-124889200D01*
X104886540Y-124889200D01*
X104742465Y-124917858D01*
X104742455Y-124917861D01*
X104606733Y-124974078D01*
X104606724Y-124974083D01*
X104484580Y-125055698D01*
X104484576Y-125055701D01*
X104380701Y-125159576D01*
X104380698Y-125159580D01*
X104299083Y-125281724D01*
X104299078Y-125281733D01*
X104242861Y-125417455D01*
X104242858Y-125417465D01*
X104214200Y-125561540D01*
X104214200Y-125708459D01*
X104242858Y-125852534D01*
X104242861Y-125852544D01*
X104299078Y-125988266D01*
X104299083Y-125988275D01*
X104380698Y-126110419D01*
X104380701Y-126110423D01*
X104484576Y-126214298D01*
X104484580Y-126214301D01*
X104545790Y-126255201D01*
X104590595Y-126308814D01*
X104599302Y-126378139D01*
X104569147Y-126441166D01*
X104555573Y-126454149D01*
X104553457Y-126455885D01*
X104455888Y-126553454D01*
X104455885Y-126553458D01*
X104379228Y-126668182D01*
X104379221Y-126668195D01*
X104326421Y-126795667D01*
X104326418Y-126795677D01*
X104299500Y-126931004D01*
X104299500Y-126931007D01*
X104299500Y-127068993D01*
X104299500Y-127068995D01*
X104299499Y-127068995D01*
X104326418Y-127204322D01*
X104326421Y-127204332D01*
X104379221Y-127331804D01*
X104379228Y-127331817D01*
X104455885Y-127446541D01*
X104455888Y-127446545D01*
X104553454Y-127544111D01*
X104553458Y-127544114D01*
X104668182Y-127620771D01*
X104668195Y-127620778D01*
X104795085Y-127673337D01*
X104795672Y-127673580D01*
X104795676Y-127673580D01*
X104795677Y-127673581D01*
X104931004Y-127700500D01*
X104931007Y-127700500D01*
X105068995Y-127700500D01*
X105174245Y-127679564D01*
X105204328Y-127673580D01*
X105204328Y-127673579D01*
X105205549Y-127673337D01*
X105275141Y-127679564D01*
X105330318Y-127722427D01*
X105344302Y-127747501D01*
X105379223Y-127831807D01*
X105379228Y-127831817D01*
X105455885Y-127946541D01*
X105455888Y-127946545D01*
X105553454Y-128044111D01*
X105553458Y-128044114D01*
X105668182Y-128120771D01*
X105668195Y-128120778D01*
X105782640Y-128168182D01*
X105795672Y-128173580D01*
X105795676Y-128173580D01*
X105795677Y-128173581D01*
X105931004Y-128200500D01*
X105931007Y-128200500D01*
X106068995Y-128200500D01*
X106160041Y-128182389D01*
X106204328Y-128173580D01*
X106331811Y-128120775D01*
X106446542Y-128044114D01*
X106544114Y-127946542D01*
X106563187Y-127917995D01*
X106578603Y-127899210D01*
X107377294Y-127100518D01*
X107438617Y-127067034D01*
X107464975Y-127064200D01*
X107578223Y-127064200D01*
X107578224Y-127064199D01*
X107619777Y-127055934D01*
X108337618Y-127055934D01*
X108337618Y-127055935D01*
X108346675Y-127061986D01*
X108509316Y-127129354D01*
X108509322Y-127129356D01*
X108681975Y-127163700D01*
X108858024Y-127163700D01*
X109030677Y-127129356D01*
X109030683Y-127129354D01*
X109193323Y-127061987D01*
X109193331Y-127061982D01*
X109245305Y-127027255D01*
X109311982Y-127006377D01*
X109379362Y-127024861D01*
X109417298Y-127061466D01*
X109460698Y-127126420D01*
X109564576Y-127230298D01*
X109564580Y-127230301D01*
X109686724Y-127311916D01*
X109686730Y-127311919D01*
X109686731Y-127311920D01*
X109822458Y-127368140D01*
X109937165Y-127390956D01*
X109966540Y-127396799D01*
X109966544Y-127396800D01*
X109966545Y-127396800D01*
X110113456Y-127396800D01*
X110113457Y-127396799D01*
X110257542Y-127368140D01*
X110393269Y-127311920D01*
X110515420Y-127230301D01*
X110619301Y-127126420D01*
X110700920Y-127004269D01*
X110757140Y-126868542D01*
X110785800Y-126724455D01*
X110785800Y-126577545D01*
X110757140Y-126433458D01*
X110700920Y-126297731D01*
X110700919Y-126297730D01*
X110700916Y-126297724D01*
X110619301Y-126175580D01*
X110619298Y-126175576D01*
X110515423Y-126071701D01*
X110515419Y-126071698D01*
X110393275Y-125990083D01*
X110393266Y-125990078D01*
X110277005Y-125941922D01*
X110257542Y-125933860D01*
X110257538Y-125933859D01*
X110257534Y-125933858D01*
X110121576Y-125906814D01*
X110121569Y-125906814D01*
X110113455Y-125905200D01*
X109966545Y-125905200D01*
X109966540Y-125905200D01*
X109822465Y-125933858D01*
X109822460Y-125933859D01*
X109822458Y-125933860D01*
X109809589Y-125939190D01*
X109745515Y-125965730D01*
X109676046Y-125973198D01*
X109613567Y-125941922D01*
X109583503Y-125898620D01*
X109561987Y-125846677D01*
X109555934Y-125837618D01*
X108946777Y-126446777D01*
X108337618Y-127055934D01*
X107619777Y-127055934D01*
X107731660Y-127033680D01*
X107876195Y-126973811D01*
X107907784Y-126952704D01*
X107976751Y-126906622D01*
X107976752Y-126906621D01*
X108006273Y-126886896D01*
X108116896Y-126776273D01*
X108203811Y-126646195D01*
X108263680Y-126501660D01*
X108275931Y-126440066D01*
X108284695Y-126423310D01*
X108288716Y-126404832D01*
X108307455Y-126379799D01*
X108308313Y-126378160D01*
X108309867Y-126376578D01*
X108380129Y-126306318D01*
X108441453Y-126272833D01*
X108467809Y-126270000D01*
X108770000Y-126270000D01*
X108770000Y-125967808D01*
X108778643Y-125938371D01*
X108785167Y-125908382D01*
X108788922Y-125903364D01*
X108789685Y-125900769D01*
X108806318Y-125880127D01*
X108876578Y-125809866D01*
X108915991Y-125788345D01*
X112025000Y-125788345D01*
X112025000Y-125837500D01*
X112750000Y-125837500D01*
X112750000Y-125100000D01*
X112713361Y-125100000D01*
X112713343Y-125100001D01*
X112612347Y-125110319D01*
X112448699Y-125164546D01*
X112448688Y-125164551D01*
X112301965Y-125255052D01*
X112301961Y-125255055D01*
X112180055Y-125376961D01*
X112180052Y-125376965D01*
X112089551Y-125523688D01*
X112089546Y-125523699D01*
X112035319Y-125687347D01*
X112025000Y-125788345D01*
X108915991Y-125788345D01*
X108937901Y-125776381D01*
X108939908Y-125775962D01*
X109001660Y-125763680D01*
X109146195Y-125703811D01*
X109276273Y-125616896D01*
X109386896Y-125506273D01*
X109473811Y-125376195D01*
X109493379Y-125328952D01*
X109537217Y-125274552D01*
X109603511Y-125252486D01*
X109671211Y-125269764D01*
X109676830Y-125273305D01*
X109686724Y-125279916D01*
X109686730Y-125279919D01*
X109686731Y-125279920D01*
X109822458Y-125336140D01*
X109966540Y-125364799D01*
X109966544Y-125364800D01*
X109966545Y-125364800D01*
X110113456Y-125364800D01*
X110113457Y-125364799D01*
X110257542Y-125336140D01*
X110393269Y-125279920D01*
X110515420Y-125198301D01*
X110619301Y-125094420D01*
X110700920Y-124972269D01*
X110718743Y-124929238D01*
X110762582Y-124874836D01*
X110828876Y-124852770D01*
X110896575Y-124870048D01*
X110936405Y-124907798D01*
X110955886Y-124936953D01*
X111053454Y-125034521D01*
X111053458Y-125034524D01*
X111168182Y-125111181D01*
X111168195Y-125111188D01*
X111285025Y-125159580D01*
X111295672Y-125163990D01*
X111295676Y-125163990D01*
X111295677Y-125163991D01*
X111431004Y-125190910D01*
X111431007Y-125190910D01*
X111568995Y-125190910D01*
X111660041Y-125172799D01*
X111704328Y-125163990D01*
X111831811Y-125111185D01*
X111946542Y-125034524D01*
X112044114Y-124936952D01*
X112120775Y-124822221D01*
X112173580Y-124694738D01*
X112193941Y-124592377D01*
X112200500Y-124559405D01*
X112200500Y-124421414D01*
X112173581Y-124286087D01*
X112173580Y-124286086D01*
X112173580Y-124286082D01*
X112167697Y-124271878D01*
X112120778Y-124158605D01*
X112120771Y-124158592D01*
X112044114Y-124043868D01*
X112044111Y-124043864D01*
X111946545Y-123946298D01*
X111946541Y-123946295D01*
X111831817Y-123869638D01*
X111831804Y-123869631D01*
X111704332Y-123816831D01*
X111704322Y-123816828D01*
X111600308Y-123796138D01*
X111538397Y-123763753D01*
X111503823Y-123703037D01*
X111500500Y-123674521D01*
X111500500Y-122404206D01*
X111520185Y-122337167D01*
X111536814Y-122316529D01*
X111603499Y-122249845D01*
X111603501Y-122249841D01*
X111603503Y-122249839D01*
X111633143Y-122198502D01*
X111656285Y-122158418D01*
X111669392Y-122135716D01*
X111686379Y-122072319D01*
X111703500Y-122008423D01*
X111703500Y-121876638D01*
X111703500Y-120788345D01*
X112025000Y-120788345D01*
X112025000Y-120837500D01*
X112750000Y-120837500D01*
X112750000Y-120100000D01*
X112713361Y-120100000D01*
X112713343Y-120100001D01*
X112612347Y-120110319D01*
X112448699Y-120164546D01*
X112448688Y-120164551D01*
X112301965Y-120255052D01*
X112301961Y-120255055D01*
X112180055Y-120376961D01*
X112180052Y-120376965D01*
X112089551Y-120523688D01*
X112089546Y-120523699D01*
X112035319Y-120687347D01*
X112025000Y-120788345D01*
X111703500Y-120788345D01*
X111703500Y-119124500D01*
X111723185Y-119057461D01*
X111775989Y-119011706D01*
X111827500Y-119000500D01*
X112935760Y-119000500D01*
X112935762Y-119000500D01*
X113063056Y-118966392D01*
X113177184Y-118900500D01*
X113483312Y-118594371D01*
X113483314Y-118594370D01*
X113576500Y-118501184D01*
X113642392Y-118387056D01*
X113676500Y-118259762D01*
X113676500Y-116210109D01*
X113642392Y-116082815D01*
X113576500Y-115968687D01*
X113483314Y-115875501D01*
X113290452Y-115682639D01*
X113256967Y-115621316D01*
X113261950Y-115551626D01*
X113269091Y-115532483D01*
X113275500Y-115472873D01*
X113275499Y-115177128D01*
X113275498Y-115177126D01*
X113275498Y-115177111D01*
X113274320Y-115166155D01*
X113286725Y-115097395D01*
X113298794Y-115078115D01*
X113299102Y-115077582D01*
X113359555Y-114931631D01*
X113367012Y-114875000D01*
X113183897Y-114875000D01*
X113162868Y-114868825D01*
X113141002Y-114867344D01*
X113121240Y-114856601D01*
X113116858Y-114855315D01*
X113109961Y-114850547D01*
X113017331Y-114781204D01*
X113015858Y-114780654D01*
X113007635Y-114774547D01*
X112991585Y-114753274D01*
X112972743Y-114734435D01*
X112970866Y-114725814D01*
X112965553Y-114718771D01*
X112963551Y-114692199D01*
X112957886Y-114666163D01*
X112960968Y-114657896D01*
X112960306Y-114649099D01*
X112972987Y-114625665D01*
X112982298Y-114600697D01*
X112990209Y-114593841D01*
X112993560Y-114587650D01*
X113003980Y-114581908D01*
X113011311Y-114575556D01*
X113010230Y-114574112D01*
X113033522Y-114556675D01*
X113109586Y-114499733D01*
X113175050Y-114475316D01*
X113183897Y-114475000D01*
X113367010Y-114475000D01*
X113367011Y-114474998D01*
X113359557Y-114418372D01*
X113359555Y-114418366D01*
X113299100Y-114272412D01*
X113295035Y-114265372D01*
X113296187Y-114264706D01*
X113274039Y-114207421D01*
X113274319Y-114183848D01*
X113275500Y-114172873D01*
X113275499Y-113877128D01*
X113269091Y-113817517D01*
X113241421Y-113743332D01*
X113236438Y-113673642D01*
X113241420Y-113656672D01*
X113269091Y-113582483D01*
X113275500Y-113522873D01*
X113275499Y-113227128D01*
X113269091Y-113167517D01*
X113241421Y-113093332D01*
X113236438Y-113023642D01*
X113241422Y-113006667D01*
X113269091Y-112932483D01*
X113275500Y-112872873D01*
X113275499Y-112577128D01*
X113269091Y-112517517D01*
X113241421Y-112443332D01*
X113236438Y-112373642D01*
X113241422Y-112356667D01*
X113269091Y-112282483D01*
X113275500Y-112222873D01*
X113275499Y-111927128D01*
X113269091Y-111867517D01*
X113264449Y-111855072D01*
X113218797Y-111732671D01*
X113218793Y-111732664D01*
X113132547Y-111617455D01*
X113132544Y-111617452D01*
X113017335Y-111531206D01*
X113017328Y-111531202D01*
X112882482Y-111480908D01*
X112882483Y-111480908D01*
X112822883Y-111474501D01*
X112822881Y-111474500D01*
X112822873Y-111474500D01*
X112822865Y-111474500D01*
X112762000Y-111474500D01*
X112694961Y-111454815D01*
X112649206Y-111402011D01*
X112638000Y-111350500D01*
X112638000Y-106996174D01*
X112657685Y-106929135D01*
X112674314Y-106908498D01*
X114745994Y-104836817D01*
X114807317Y-104803333D01*
X114833675Y-104800499D01*
X115301922Y-104800499D01*
X115301934Y-104800499D01*
X115338098Y-104797654D01*
X115492894Y-104752681D01*
X115631643Y-104670626D01*
X115745626Y-104556643D01*
X115827681Y-104417894D01*
X115829674Y-104411032D01*
X115867278Y-104352148D01*
X115930749Y-104322940D01*
X115999936Y-104332683D01*
X116052872Y-104378285D01*
X116066457Y-104406621D01*
X116089547Y-104476302D01*
X116089551Y-104476311D01*
X116180052Y-104623034D01*
X116180055Y-104623038D01*
X116301961Y-104744944D01*
X116301965Y-104744947D01*
X116448688Y-104835448D01*
X116448699Y-104835453D01*
X116612347Y-104889680D01*
X116713352Y-104899999D01*
X116750000Y-104899999D01*
X117250000Y-104899999D01*
X117286640Y-104899999D01*
X117286654Y-104899998D01*
X117387652Y-104889680D01*
X117551300Y-104835453D01*
X117551311Y-104835448D01*
X117698034Y-104744947D01*
X117698038Y-104744944D01*
X117819944Y-104623038D01*
X117819947Y-104623034D01*
X117910448Y-104476311D01*
X117910453Y-104476300D01*
X117964680Y-104312652D01*
X117974999Y-104211654D01*
X117975000Y-104211641D01*
X117975000Y-104162500D01*
X117250000Y-104162500D01*
X117250000Y-104899999D01*
X116750000Y-104899999D01*
X116750000Y-104036500D01*
X116769685Y-103969461D01*
X116822489Y-103923706D01*
X116874000Y-103912500D01*
X117000000Y-103912500D01*
X117000000Y-103786500D01*
X117019685Y-103719461D01*
X117072489Y-103673706D01*
X117124000Y-103662500D01*
X117974999Y-103662500D01*
X117974999Y-103613360D01*
X117974998Y-103613345D01*
X117965971Y-103524986D01*
X118875001Y-103524986D01*
X118885494Y-103627697D01*
X118940641Y-103794119D01*
X118940643Y-103794124D01*
X119032684Y-103943345D01*
X119156654Y-104067315D01*
X119305875Y-104159356D01*
X119305880Y-104159358D01*
X119472302Y-104214505D01*
X119472309Y-104214506D01*
X119575019Y-104224999D01*
X119712499Y-104224999D01*
X119712500Y-104224998D01*
X119712500Y-103250000D01*
X118875001Y-103250000D01*
X118875001Y-103524986D01*
X117965971Y-103524986D01*
X117964680Y-103512347D01*
X117910453Y-103348699D01*
X117910448Y-103348688D01*
X117858048Y-103263735D01*
X117819947Y-103201965D01*
X117819944Y-103201961D01*
X117698037Y-103080054D01*
X117644927Y-103047295D01*
X117598203Y-102995346D01*
X117586982Y-102926384D01*
X117614826Y-102862302D01*
X117626257Y-102851273D01*
X117626127Y-102851143D01*
X117745621Y-102731648D01*
X117745626Y-102731643D01*
X117827681Y-102592894D01*
X117861929Y-102475013D01*
X118875000Y-102475013D01*
X118875000Y-102750000D01*
X119712500Y-102750000D01*
X119712500Y-101775000D01*
X119575027Y-101775000D01*
X119575012Y-101775001D01*
X119472302Y-101785494D01*
X119305880Y-101840641D01*
X119305875Y-101840643D01*
X119156654Y-101932684D01*
X119032684Y-102056654D01*
X118940643Y-102205875D01*
X118940641Y-102205880D01*
X118885494Y-102372302D01*
X118885493Y-102372309D01*
X118875000Y-102475013D01*
X117861929Y-102475013D01*
X117872654Y-102438098D01*
X117875500Y-102401935D01*
X117875499Y-101773066D01*
X117872654Y-101736902D01*
X117827681Y-101582106D01*
X117745626Y-101443357D01*
X117745624Y-101443355D01*
X117745621Y-101443351D01*
X117631648Y-101329378D01*
X117631636Y-101329369D01*
X117492896Y-101247320D01*
X117492889Y-101247317D01*
X117338102Y-101202346D01*
X117338096Y-101202345D01*
X117301935Y-101199500D01*
X116698077Y-101199500D01*
X116698052Y-101199501D01*
X116661901Y-101202346D01*
X116507110Y-101247317D01*
X116507103Y-101247320D01*
X116368363Y-101329369D01*
X116368351Y-101329378D01*
X116254378Y-101443351D01*
X116254369Y-101443363D01*
X116183251Y-101563620D01*
X116174950Y-101571370D01*
X116170232Y-101581703D01*
X116149870Y-101594788D01*
X116132183Y-101611304D01*
X116119488Y-101614313D01*
X116111454Y-101619477D01*
X116076519Y-101624500D01*
X115923481Y-101624500D01*
X115856442Y-101604815D01*
X115816749Y-101563620D01*
X115745630Y-101443363D01*
X115745621Y-101443351D01*
X115631648Y-101329378D01*
X115631636Y-101329369D01*
X115492896Y-101247320D01*
X115492889Y-101247317D01*
X115338102Y-101202346D01*
X115338096Y-101202345D01*
X115301935Y-101199500D01*
X114698077Y-101199500D01*
X114698052Y-101199501D01*
X114661901Y-101202346D01*
X114507110Y-101247317D01*
X114507103Y-101247320D01*
X114368363Y-101329369D01*
X114368351Y-101329378D01*
X114254378Y-101443351D01*
X114254369Y-101443363D01*
X114172320Y-101582103D01*
X114172317Y-101582110D01*
X114127346Y-101736897D01*
X114127345Y-101736903D01*
X114124500Y-101773057D01*
X114124500Y-102476922D01*
X114124501Y-102476947D01*
X114127346Y-102513098D01*
X114172317Y-102667889D01*
X114172320Y-102667896D01*
X114254369Y-102806636D01*
X114254378Y-102806648D01*
X114360049Y-102912319D01*
X114393534Y-102973642D01*
X114388550Y-103043334D01*
X114360049Y-103087681D01*
X114254378Y-103193351D01*
X114254369Y-103193363D01*
X114172320Y-103332103D01*
X114172317Y-103332110D01*
X114127346Y-103486897D01*
X114127345Y-103486903D01*
X114124500Y-103523057D01*
X114124500Y-103991323D01*
X114104815Y-104058362D01*
X114088181Y-104079004D01*
X111812744Y-106354440D01*
X111812745Y-106354441D01*
X111737000Y-106430186D01*
X111671108Y-106544312D01*
X111637000Y-106671608D01*
X111637000Y-111350500D01*
X111617315Y-111417539D01*
X111564511Y-111463294D01*
X111513002Y-111474500D01*
X111452130Y-111474500D01*
X111452123Y-111474501D01*
X111392516Y-111480908D01*
X111257671Y-111531202D01*
X111257664Y-111531206D01*
X111142455Y-111617452D01*
X111142452Y-111617455D01*
X111056206Y-111732664D01*
X111056202Y-111732671D01*
X111005910Y-111867513D01*
X111005909Y-111867517D01*
X110999500Y-111927127D01*
X110999500Y-111927134D01*
X110999500Y-111927135D01*
X110999500Y-111927136D01*
X110999501Y-112100499D01*
X110979817Y-112167539D01*
X110927013Y-112213294D01*
X110875501Y-112224500D01*
X106209108Y-112224500D01*
X106081812Y-112258608D01*
X105967686Y-112324500D01*
X105967683Y-112324502D01*
X104204003Y-114088181D01*
X104142680Y-114121666D01*
X104116322Y-114124500D01*
X103523077Y-114124500D01*
X103523052Y-114124501D01*
X103486901Y-114127346D01*
X103332110Y-114172317D01*
X103332103Y-114172320D01*
X103193363Y-114254369D01*
X103193351Y-114254378D01*
X103087681Y-114360049D01*
X103026358Y-114393534D01*
X102956666Y-114388550D01*
X102912319Y-114360049D01*
X102806648Y-114254378D01*
X102806636Y-114254369D01*
X102667896Y-114172320D01*
X102667889Y-114172317D01*
X102513102Y-114127346D01*
X102513096Y-114127345D01*
X102476935Y-114124500D01*
X101773077Y-114124500D01*
X101773052Y-114124501D01*
X101736901Y-114127346D01*
X101582110Y-114172317D01*
X101582103Y-114172320D01*
X101443363Y-114254369D01*
X101443351Y-114254378D01*
X101329378Y-114368351D01*
X101329369Y-114368363D01*
X101247320Y-114507103D01*
X101247317Y-114507110D01*
X101202346Y-114661897D01*
X101202345Y-114661903D01*
X101199500Y-114698057D01*
X100500500Y-114698057D01*
X100500500Y-105172351D01*
X100520185Y-105105312D01*
X100572989Y-105059557D01*
X100642147Y-105049613D01*
X100705703Y-105078638D01*
X100729492Y-105106377D01*
X100885685Y-105354956D01*
X101109812Y-105636003D01*
X101363997Y-105890188D01*
X101645044Y-106114315D01*
X101949418Y-106305566D01*
X102273292Y-106461536D01*
X102509853Y-106544312D01*
X102612580Y-106580258D01*
X102612592Y-106580262D01*
X102963052Y-106660252D01*
X103320260Y-106700499D01*
X103320261Y-106700500D01*
X103320264Y-106700500D01*
X103679739Y-106700500D01*
X103679739Y-106700499D01*
X104036948Y-106660252D01*
X104387408Y-106580262D01*
X104726708Y-106461536D01*
X105050582Y-106305566D01*
X105354956Y-106114315D01*
X105636003Y-105890188D01*
X105890188Y-105636003D01*
X106114315Y-105354956D01*
X106305566Y-105050582D01*
X106461536Y-104726708D01*
X106580262Y-104387408D01*
X106660252Y-104036948D01*
X106700500Y-103679736D01*
X106700500Y-103320264D01*
X106660252Y-102963052D01*
X106580262Y-102612592D01*
X106573369Y-102592894D01*
X106532121Y-102475013D01*
X106461536Y-102273292D01*
X106305566Y-101949418D01*
X106114315Y-101645044D01*
X105890188Y-101363997D01*
X105636003Y-101109812D01*
X105354956Y-100885685D01*
X105106380Y-100729494D01*
X105060089Y-100677159D01*
X105049441Y-100608106D01*
X105077816Y-100544257D01*
X105136206Y-100505885D01*
X105172352Y-100500500D01*
X129375500Y-100500500D01*
X129442539Y-100520185D01*
G37*
%TD.AperFunction*%
%TD*%
M02*
