%TF.GenerationSoftware,KiCad,Pcbnew,9.0.2*%
%TF.CreationDate,2025-10-26T22:21:03-05:00*%
%TF.ProjectId,capy_bara,63617079-5f62-4617-9261-2e6b69636164,rev?*%
%TF.SameCoordinates,Original*%
%TF.FileFunction,Copper,L2,Bot*%
%TF.FilePolarity,Positive*%
%FSLAX46Y46*%
G04 Gerber Fmt 4.6, Leading zero omitted, Abs format (unit mm)*
G04 Created by KiCad (PCBNEW 9.0.2) date 2025-10-26 22:21:03*
%MOMM*%
%LPD*%
G01*
G04 APERTURE LIST*
G04 Aperture macros list*
%AMRoundRect*
0 Rectangle with rounded corners*
0 $1 Rounding radius*
0 $2 $3 $4 $5 $6 $7 $8 $9 X,Y pos of 4 corners*
0 Add a 4 corners polygon primitive as box body*
4,1,4,$2,$3,$4,$5,$6,$7,$8,$9,$2,$3,0*
0 Add four circle primitives for the rounded corners*
1,1,$1+$1,$2,$3*
1,1,$1+$1,$4,$5*
1,1,$1+$1,$6,$7*
1,1,$1+$1,$8,$9*
0 Add four rect primitives between the rounded corners*
20,1,$1+$1,$2,$3,$4,$5,0*
20,1,$1+$1,$4,$5,$6,$7,0*
20,1,$1+$1,$6,$7,$8,$9,0*
20,1,$1+$1,$8,$9,$2,$3,0*%
G04 Aperture macros list end*
%TA.AperFunction,ComponentPad*%
%ADD10RoundRect,0.112500X-0.262500X-0.387500X0.262500X-0.387500X0.262500X0.387500X-0.262500X0.387500X0*%
%TD*%
%TA.AperFunction,ComponentPad*%
%ADD11C,1.500000*%
%TD*%
%TA.AperFunction,ComponentPad*%
%ADD12C,3.600000*%
%TD*%
%TA.AperFunction,ConnectorPad*%
%ADD13C,5.600000*%
%TD*%
%TA.AperFunction,SMDPad,CuDef*%
%ADD14RoundRect,4.250000X1.767760X1.767774X-1.767774X-1.767760X-1.767760X-1.767774X1.767774X1.767760X0*%
%TD*%
%TA.AperFunction,SMDPad,CuDef*%
%ADD15RoundRect,0.500000X-0.176777X0.883883X-0.883883X0.176777X0.176777X-0.883883X0.883883X-0.176777X0*%
%TD*%
%TA.AperFunction,ViaPad*%
%ADD16C,0.600000*%
%TD*%
%TA.AperFunction,Conductor*%
%ADD17C,0.200000*%
%TD*%
G04 APERTURE END LIST*
D10*
%TO.P,U6,1*%
%TO.N,Net-(U1-PA9)*%
X121750000Y-123750000D03*
%TO.P,U6,2*%
%TO.N,Net-(R11-Pad1)*%
X128250000Y-123750000D03*
%TO.P,U6,3*%
%TO.N,GND*%
X121750000Y-128250000D03*
%TO.P,U6,4*%
X128250000Y-128250000D03*
%TD*%
D11*
%TO.P,U5,1*%
%TO.N,+3V0*%
X124500000Y-103000000D03*
%TD*%
%TO.P,U3,1*%
%TO.N,GND*%
X124500000Y-121000000D03*
%TD*%
%TO.P,U2,1*%
%TO.N,+3V0*%
X103000000Y-124500000D03*
%TD*%
D12*
%TO.P,H1,1*%
%TO.N,N/C*%
X103500000Y-103500000D03*
D13*
X103500000Y-103500000D03*
%TD*%
D14*
%TO.P,U4,1,GND*%
%TO.N,GND*%
X112500000Y-112500000D03*
D15*
%TO.P,U4,2,Vcc*%
%TO.N,+3V0*%
X119571068Y-103307612D03*
%TO.P,U4,3,Vcc*%
X121692388Y-105428932D03*
%TO.P,U4,4,Vcc*%
X103307612Y-119571068D03*
%TO.P,U4,5,Vcc*%
X105428932Y-121692388D03*
%TD*%
D16*
%TO.N,Net-(U1-NRST)*%
X116500000Y-128500000D03*
X106000000Y-127500000D03*
%TO.N,+3V0*%
X105000000Y-127000000D03*
%TO.N,Net-(U1-PA9)*%
X111500000Y-124490410D03*
%TD*%
D17*
%TO.N,Net-(U1-NRST)*%
X106000000Y-127500000D02*
X107000000Y-128500000D01*
X107000000Y-128500000D02*
X116500000Y-128500000D01*
%TO.N,GND*%
X114905294Y-115396178D02*
X115009116Y-115500000D01*
X109916157Y-117953134D02*
X109932403Y-117936888D01*
X113500000Y-111000000D02*
X113500000Y-111500000D01*
%TO.N,+3V0*%
X103000000Y-125500000D02*
X103000000Y-124500000D01*
X103000000Y-124500000D02*
X105428932Y-122071068D01*
X119571068Y-103307612D02*
X112192388Y-103307612D01*
X122071068Y-105428932D02*
X121692388Y-105428932D01*
X124500000Y-103000000D02*
X122071068Y-105428932D01*
X119571068Y-103307612D02*
X124192388Y-103307612D01*
X105000000Y-127000000D02*
X104500000Y-127000000D01*
X103307612Y-123692388D02*
X102500000Y-124500000D01*
X105428932Y-122071068D02*
X105428932Y-121692388D01*
X103307612Y-112192388D02*
X103307612Y-119571068D01*
X112192388Y-103307612D02*
X103307612Y-112192388D01*
X104500000Y-127000000D02*
X103000000Y-125500000D01*
X124192388Y-103307612D02*
X124500000Y-103000000D01*
X103307612Y-119571068D02*
X103307612Y-123692388D01*
X119878680Y-103000000D02*
X119571068Y-103307612D01*
%TO.N,Net-(U1-PA9)*%
X121009590Y-124490410D02*
X121750000Y-123750000D01*
X111500000Y-124490410D02*
X121009590Y-124490410D01*
%TD*%
%TA.AperFunction,Conductor*%
%TO.N,GND*%
G36*
X129442539Y-100520185D02*
G01*
X129488294Y-100572989D01*
X129499500Y-100624500D01*
X129499500Y-129375500D01*
X129479815Y-129442539D01*
X129427011Y-129488294D01*
X129375500Y-129499500D01*
X100624500Y-129499500D01*
X100557461Y-129479815D01*
X100511706Y-129427011D01*
X100500500Y-129375500D01*
X100500500Y-119394291D01*
X101518268Y-119394291D01*
X101538055Y-119582547D01*
X101596549Y-119762575D01*
X101605006Y-119777223D01*
X101691197Y-119926509D01*
X101742399Y-119986459D01*
X101742409Y-119986470D01*
X101742416Y-119986478D01*
X102525684Y-120769745D01*
X102770793Y-121014853D01*
X102804278Y-121076176D01*
X102807112Y-121102534D01*
X102807112Y-123262874D01*
X102787427Y-123329913D01*
X102734623Y-123375668D01*
X102721430Y-123380805D01*
X102558363Y-123433787D01*
X102558360Y-123433788D01*
X102397002Y-123516006D01*
X102250505Y-123622441D01*
X102250500Y-123622445D01*
X102122445Y-123750500D01*
X102122441Y-123750505D01*
X102016006Y-123897002D01*
X101933788Y-124058360D01*
X101933787Y-124058363D01*
X101877829Y-124230589D01*
X101849500Y-124409448D01*
X101849500Y-124590551D01*
X101877829Y-124769410D01*
X101933787Y-124941636D01*
X101933788Y-124941639D01*
X101989664Y-125051300D01*
X102011635Y-125094420D01*
X102016006Y-125102997D01*
X102122441Y-125249494D01*
X102122445Y-125249499D01*
X102250500Y-125377554D01*
X102250505Y-125377558D01*
X102397004Y-125483995D01*
X102441100Y-125506463D01*
X102491896Y-125554437D01*
X102504580Y-125584852D01*
X102533608Y-125693186D01*
X102599500Y-125807314D01*
X104099500Y-127307314D01*
X104192686Y-127400500D01*
X104245526Y-127431007D01*
X104272433Y-127446542D01*
X104272434Y-127446543D01*
X104306808Y-127466389D01*
X104306809Y-127466389D01*
X104306814Y-127466392D01*
X104434107Y-127500500D01*
X104434108Y-127500500D01*
X104458481Y-127500500D01*
X104525520Y-127520185D01*
X104546162Y-127536819D01*
X104553454Y-127544111D01*
X104553458Y-127544114D01*
X104668182Y-127620771D01*
X104668195Y-127620778D01*
X104795085Y-127673337D01*
X104795672Y-127673580D01*
X104795676Y-127673580D01*
X104795677Y-127673581D01*
X104931004Y-127700500D01*
X104931007Y-127700500D01*
X105068995Y-127700500D01*
X105174245Y-127679564D01*
X105204328Y-127673580D01*
X105204328Y-127673579D01*
X105205549Y-127673337D01*
X105275141Y-127679564D01*
X105330318Y-127722427D01*
X105344302Y-127747501D01*
X105379223Y-127831807D01*
X105379228Y-127831817D01*
X105455885Y-127946541D01*
X105455888Y-127946545D01*
X105553454Y-128044111D01*
X105553458Y-128044114D01*
X105668182Y-128120771D01*
X105668195Y-128120778D01*
X105782640Y-128168182D01*
X105795672Y-128173580D01*
X105795676Y-128173580D01*
X105795677Y-128173581D01*
X105931004Y-128200500D01*
X105931007Y-128200500D01*
X105941324Y-128200500D01*
X106008363Y-128220185D01*
X106029005Y-128236819D01*
X106599500Y-128807314D01*
X106692686Y-128900500D01*
X106806814Y-128966392D01*
X106934108Y-129000500D01*
X115958481Y-129000500D01*
X116025520Y-129020185D01*
X116046162Y-129036819D01*
X116053454Y-129044111D01*
X116053458Y-129044114D01*
X116168182Y-129120771D01*
X116168195Y-129120778D01*
X116286025Y-129169584D01*
X116295672Y-129173580D01*
X116295676Y-129173580D01*
X116295677Y-129173581D01*
X116431004Y-129200500D01*
X116431007Y-129200500D01*
X116568995Y-129200500D01*
X116660041Y-129182389D01*
X116704328Y-129173580D01*
X116713975Y-129169584D01*
X121183965Y-129169584D01*
X121242315Y-129204092D01*
X121242318Y-129204093D01*
X121390915Y-129247265D01*
X121390926Y-129247267D01*
X121425647Y-129249999D01*
X122074341Y-129249999D01*
X122074363Y-129249998D01*
X122109078Y-129247266D01*
X122257682Y-129204093D01*
X122257689Y-129204090D01*
X122316033Y-129169585D01*
X122316033Y-129169584D01*
X127683965Y-129169584D01*
X127742315Y-129204092D01*
X127742318Y-129204093D01*
X127890915Y-129247265D01*
X127890926Y-129247267D01*
X127925647Y-129249999D01*
X128574341Y-129249999D01*
X128574363Y-129249998D01*
X128609078Y-129247266D01*
X128757682Y-129204093D01*
X128757689Y-129204090D01*
X128816033Y-129169585D01*
X128816033Y-129169584D01*
X128294496Y-128648047D01*
X128363291Y-128619552D01*
X128419552Y-128563291D01*
X128450000Y-128489782D01*
X128450000Y-128249999D01*
X128603552Y-128249999D01*
X128603552Y-128250000D01*
X129114468Y-128760916D01*
X129122267Y-128734075D01*
X129124999Y-128699359D01*
X129124999Y-127800658D01*
X129124998Y-127800636D01*
X129122266Y-127765921D01*
X129114469Y-127739082D01*
X128603552Y-128249999D01*
X128450000Y-128249999D01*
X128450000Y-128010218D01*
X128419552Y-127936709D01*
X128363291Y-127880448D01*
X128294496Y-127851952D01*
X128816033Y-127330414D01*
X128816032Y-127330413D01*
X128757688Y-127295909D01*
X128757681Y-127295906D01*
X128609084Y-127252734D01*
X128609073Y-127252732D01*
X128574352Y-127250000D01*
X127925658Y-127250000D01*
X127925636Y-127250001D01*
X127890921Y-127252733D01*
X127742318Y-127295906D01*
X127742306Y-127295911D01*
X127683966Y-127330413D01*
X127683966Y-127330414D01*
X128205504Y-127851952D01*
X128136709Y-127880448D01*
X128080448Y-127936709D01*
X128050000Y-128010218D01*
X128050000Y-128489782D01*
X128080448Y-128563291D01*
X128136709Y-128619552D01*
X128205504Y-128648047D01*
X127683965Y-129169584D01*
X122316033Y-129169584D01*
X121794496Y-128648047D01*
X121863291Y-128619552D01*
X121919552Y-128563291D01*
X121950000Y-128489782D01*
X121950000Y-128249999D01*
X122103552Y-128249999D01*
X122103552Y-128250000D01*
X122614468Y-128760916D01*
X122622267Y-128734075D01*
X122624999Y-128699359D01*
X122624999Y-127800647D01*
X122624999Y-127800641D01*
X127375000Y-127800641D01*
X127375000Y-128699341D01*
X127375001Y-128699363D01*
X127377732Y-128734076D01*
X127377733Y-128734079D01*
X127385530Y-128760916D01*
X127896448Y-128250000D01*
X127385530Y-127739082D01*
X127385529Y-127739082D01*
X127377733Y-127765918D01*
X127377732Y-127765923D01*
X127375000Y-127800641D01*
X122624999Y-127800641D01*
X122622266Y-127765921D01*
X122614469Y-127739082D01*
X122103552Y-128249999D01*
X121950000Y-128249999D01*
X121950000Y-128010218D01*
X121919552Y-127936709D01*
X121863291Y-127880448D01*
X121794496Y-127851952D01*
X122316033Y-127330414D01*
X122316032Y-127330413D01*
X122257688Y-127295909D01*
X122257681Y-127295906D01*
X122109084Y-127252734D01*
X122109073Y-127252732D01*
X122074352Y-127250000D01*
X121425658Y-127250000D01*
X121425636Y-127250001D01*
X121390921Y-127252733D01*
X121242318Y-127295906D01*
X121242306Y-127295911D01*
X121183966Y-127330413D01*
X121183966Y-127330414D01*
X121705504Y-127851952D01*
X121636709Y-127880448D01*
X121580448Y-127936709D01*
X121550000Y-128010218D01*
X121550000Y-128489782D01*
X121580448Y-128563291D01*
X121636709Y-128619552D01*
X121705504Y-128648047D01*
X121183965Y-129169584D01*
X116713975Y-129169584D01*
X116831811Y-129120775D01*
X116946542Y-129044114D01*
X116946545Y-129044111D01*
X116953480Y-129037177D01*
X117044111Y-128946545D01*
X117044114Y-128946542D01*
X117120775Y-128831811D01*
X117173580Y-128704328D01*
X117200500Y-128568993D01*
X117200500Y-128431007D01*
X117200500Y-128431004D01*
X117173581Y-128295677D01*
X117173580Y-128295676D01*
X117173580Y-128295672D01*
X117154662Y-128249999D01*
X117120778Y-128168195D01*
X117120771Y-128168182D01*
X117044114Y-128053458D01*
X117044111Y-128053454D01*
X116946545Y-127955888D01*
X116946541Y-127955885D01*
X116864870Y-127901314D01*
X116831816Y-127879228D01*
X116831804Y-127879221D01*
X116704332Y-127826421D01*
X116704322Y-127826418D01*
X116574731Y-127800641D01*
X120875000Y-127800641D01*
X120875000Y-128699341D01*
X120875001Y-128699363D01*
X120877732Y-128734076D01*
X120877733Y-128734079D01*
X120885530Y-128760916D01*
X121396448Y-128250000D01*
X120885530Y-127739082D01*
X120885529Y-127739082D01*
X120877733Y-127765918D01*
X120877732Y-127765923D01*
X120875000Y-127800641D01*
X116574731Y-127800641D01*
X116568995Y-127799500D01*
X116568993Y-127799500D01*
X116431007Y-127799500D01*
X116431005Y-127799500D01*
X116295677Y-127826418D01*
X116295667Y-127826421D01*
X116168195Y-127879221D01*
X116168182Y-127879228D01*
X116053458Y-127955885D01*
X116053454Y-127955888D01*
X116046162Y-127963181D01*
X115984839Y-127996666D01*
X115958481Y-127999500D01*
X107258676Y-127999500D01*
X107191637Y-127979815D01*
X107170995Y-127963181D01*
X106736819Y-127529005D01*
X106703334Y-127467682D01*
X106700500Y-127441324D01*
X106700500Y-127431004D01*
X106673581Y-127295677D01*
X106673580Y-127295676D01*
X106673580Y-127295672D01*
X106646503Y-127230301D01*
X106620778Y-127168195D01*
X106620771Y-127168182D01*
X106544114Y-127053458D01*
X106544111Y-127053454D01*
X106446545Y-126955888D01*
X106446541Y-126955885D01*
X106331817Y-126879228D01*
X106331804Y-126879221D01*
X106204332Y-126826421D01*
X106204322Y-126826418D01*
X106068995Y-126799500D01*
X106068993Y-126799500D01*
X105931007Y-126799500D01*
X105931002Y-126799500D01*
X105794449Y-126826662D01*
X105766389Y-126824151D01*
X105738230Y-126824837D01*
X105732057Y-126821079D01*
X105724857Y-126820435D01*
X105702605Y-126803149D01*
X105678550Y-126788505D01*
X105673489Y-126780530D01*
X105669680Y-126777572D01*
X105658751Y-126759288D01*
X105657123Y-126755942D01*
X105620775Y-126668189D01*
X105560208Y-126577545D01*
X105560205Y-126577540D01*
X109294200Y-126577540D01*
X109294200Y-126724459D01*
X109322858Y-126868534D01*
X109322861Y-126868544D01*
X109379078Y-127004266D01*
X109379083Y-127004275D01*
X109460698Y-127126419D01*
X109460701Y-127126423D01*
X109564576Y-127230298D01*
X109564580Y-127230301D01*
X109686724Y-127311916D01*
X109686730Y-127311919D01*
X109686731Y-127311920D01*
X109822458Y-127368140D01*
X109966540Y-127396799D01*
X109966544Y-127396800D01*
X109966545Y-127396800D01*
X110113456Y-127396800D01*
X110113457Y-127396799D01*
X110257542Y-127368140D01*
X110393269Y-127311920D01*
X110417236Y-127295906D01*
X110452957Y-127272038D01*
X110485938Y-127250000D01*
X110515420Y-127230301D01*
X110619301Y-127126420D01*
X110700920Y-127004269D01*
X110757140Y-126868542D01*
X110785800Y-126724455D01*
X110785800Y-126577545D01*
X110757140Y-126433458D01*
X110700920Y-126297731D01*
X110700919Y-126297730D01*
X110700916Y-126297724D01*
X110619301Y-126175580D01*
X110619298Y-126175576D01*
X110515423Y-126071701D01*
X110515419Y-126071698D01*
X110393275Y-125990083D01*
X110393266Y-125990078D01*
X110257544Y-125933861D01*
X110257545Y-125933861D01*
X110257542Y-125933860D01*
X110257538Y-125933859D01*
X110257534Y-125933858D01*
X110113459Y-125905200D01*
X110113455Y-125905200D01*
X109966545Y-125905200D01*
X109966540Y-125905200D01*
X109822465Y-125933858D01*
X109822455Y-125933861D01*
X109686733Y-125990078D01*
X109686724Y-125990083D01*
X109564580Y-126071698D01*
X109564576Y-126071701D01*
X109460701Y-126175576D01*
X109460698Y-126175580D01*
X109379083Y-126297724D01*
X109379078Y-126297733D01*
X109322861Y-126433455D01*
X109322858Y-126433465D01*
X109294200Y-126577540D01*
X105560205Y-126577540D01*
X105544114Y-126553458D01*
X105544111Y-126553454D01*
X105446545Y-126455888D01*
X105446538Y-126455883D01*
X105414505Y-126434478D01*
X105369700Y-126380865D01*
X105360994Y-126311540D01*
X105391150Y-126248513D01*
X105414508Y-126228274D01*
X105435420Y-126214301D01*
X105539301Y-126110420D01*
X105620920Y-125988269D01*
X105677140Y-125852542D01*
X105705800Y-125708455D01*
X105705800Y-125561545D01*
X105677140Y-125417458D01*
X105620920Y-125281731D01*
X105620919Y-125281730D01*
X105620916Y-125281724D01*
X105539301Y-125159580D01*
X105539298Y-125159576D01*
X105435423Y-125055701D01*
X105435419Y-125055698D01*
X105313275Y-124974083D01*
X105313266Y-124974078D01*
X105177544Y-124917861D01*
X105177545Y-124917861D01*
X105177542Y-124917860D01*
X105177538Y-124917859D01*
X105177534Y-124917858D01*
X105033459Y-124889200D01*
X105033455Y-124889200D01*
X104886545Y-124889200D01*
X104886540Y-124889200D01*
X104742465Y-124917858D01*
X104742455Y-124917861D01*
X104606733Y-124974078D01*
X104606724Y-124974083D01*
X104484580Y-125055698D01*
X104484576Y-125055701D01*
X104380701Y-125159576D01*
X104380698Y-125159580D01*
X104299083Y-125281724D01*
X104299078Y-125281733D01*
X104242861Y-125417455D01*
X104242858Y-125417465D01*
X104214200Y-125561540D01*
X104214200Y-125707024D01*
X104194515Y-125774063D01*
X104141711Y-125819818D01*
X104072553Y-125829762D01*
X104008997Y-125800737D01*
X104002519Y-125794705D01*
X103755115Y-125547301D01*
X103721630Y-125485978D01*
X103726614Y-125416286D01*
X103755115Y-125371939D01*
X103790916Y-125336138D01*
X103877553Y-125249501D01*
X103983996Y-125102994D01*
X104066211Y-124941639D01*
X104122171Y-124769409D01*
X104140556Y-124653333D01*
X104150500Y-124590551D01*
X104150500Y-124545540D01*
X109294200Y-124545540D01*
X109294200Y-124692459D01*
X109322858Y-124836534D01*
X109322861Y-124836544D01*
X109379078Y-124972266D01*
X109379083Y-124972275D01*
X109460698Y-125094419D01*
X109460701Y-125094423D01*
X109564576Y-125198298D01*
X109564580Y-125198301D01*
X109686724Y-125279916D01*
X109686730Y-125279919D01*
X109686731Y-125279920D01*
X109822458Y-125336140D01*
X109966540Y-125364799D01*
X109966544Y-125364800D01*
X109966545Y-125364800D01*
X110113456Y-125364800D01*
X110113457Y-125364799D01*
X110257542Y-125336140D01*
X110393269Y-125279920D01*
X110515420Y-125198301D01*
X110619301Y-125094420D01*
X110700920Y-124972269D01*
X110718743Y-124929238D01*
X110762582Y-124874836D01*
X110828876Y-124852770D01*
X110896575Y-124870048D01*
X110936405Y-124907798D01*
X110955886Y-124936953D01*
X111053454Y-125034521D01*
X111053458Y-125034524D01*
X111168182Y-125111181D01*
X111168195Y-125111188D01*
X111285025Y-125159580D01*
X111295672Y-125163990D01*
X111295676Y-125163990D01*
X111295677Y-125163991D01*
X111431004Y-125190910D01*
X111431007Y-125190910D01*
X111568995Y-125190910D01*
X111660041Y-125172799D01*
X111704328Y-125163990D01*
X111831811Y-125111185D01*
X111946542Y-125034524D01*
X111946545Y-125034521D01*
X111953838Y-125027229D01*
X112015161Y-124993744D01*
X112041519Y-124990910D01*
X121075480Y-124990910D01*
X121075482Y-124990910D01*
X121202776Y-124956802D01*
X121316904Y-124890910D01*
X121520995Y-124686817D01*
X121582318Y-124653333D01*
X121608676Y-124650499D01*
X122061561Y-124650499D01*
X122061564Y-124650499D01*
X122122667Y-124643931D01*
X122260883Y-124592379D01*
X122378976Y-124503976D01*
X122467379Y-124385883D01*
X122512193Y-124265733D01*
X122518929Y-124247673D01*
X122518929Y-124247671D01*
X122518931Y-124247667D01*
X122524759Y-124193458D01*
X122525499Y-124186581D01*
X122525499Y-124186570D01*
X122525500Y-124186565D01*
X122525499Y-123313436D01*
X122525497Y-123313418D01*
X127474500Y-123313418D01*
X127474500Y-124186561D01*
X127474501Y-124186570D01*
X127481068Y-124247665D01*
X127487807Y-124265733D01*
X127532621Y-124385883D01*
X127621024Y-124503976D01*
X127739117Y-124592379D01*
X127739116Y-124592379D01*
X127877326Y-124643929D01*
X127877329Y-124643929D01*
X127877333Y-124643931D01*
X127938435Y-124650500D01*
X128561564Y-124650499D01*
X128622667Y-124643931D01*
X128760883Y-124592379D01*
X128878976Y-124503976D01*
X128967379Y-124385883D01*
X129012193Y-124265733D01*
X129018929Y-124247673D01*
X129018929Y-124247671D01*
X129018931Y-124247667D01*
X129024759Y-124193458D01*
X129025499Y-124186581D01*
X129025499Y-124186570D01*
X129025500Y-124186565D01*
X129025499Y-123313436D01*
X129018931Y-123252333D01*
X128967379Y-123114117D01*
X128878976Y-122996024D01*
X128790572Y-122929845D01*
X128760882Y-122907620D01*
X128760883Y-122907620D01*
X128622673Y-122856070D01*
X128622668Y-122856069D01*
X128561573Y-122849500D01*
X127938438Y-122849500D01*
X127938429Y-122849501D01*
X127877334Y-122856068D01*
X127739114Y-122907622D01*
X127621024Y-122996024D01*
X127532620Y-123114117D01*
X127481070Y-123252326D01*
X127481069Y-123252331D01*
X127474500Y-123313418D01*
X122525497Y-123313418D01*
X122518931Y-123252333D01*
X122467379Y-123114117D01*
X122378976Y-122996024D01*
X122290572Y-122929845D01*
X122260882Y-122907620D01*
X122260883Y-122907620D01*
X122122673Y-122856070D01*
X122122668Y-122856069D01*
X122061573Y-122849500D01*
X121438438Y-122849500D01*
X121438429Y-122849501D01*
X121377334Y-122856068D01*
X121239114Y-122907622D01*
X121121024Y-122996024D01*
X121032620Y-123114117D01*
X120981070Y-123252326D01*
X120981069Y-123252331D01*
X120974500Y-123313418D01*
X120974500Y-123766323D01*
X120965854Y-123795766D01*
X120959332Y-123825749D01*
X120955577Y-123830764D01*
X120954815Y-123833362D01*
X120938185Y-123853999D01*
X120838593Y-123953592D01*
X120777273Y-123987076D01*
X120750914Y-123989910D01*
X112041519Y-123989910D01*
X111974480Y-123970225D01*
X111953838Y-123953591D01*
X111946545Y-123946298D01*
X111946541Y-123946295D01*
X111831817Y-123869638D01*
X111831804Y-123869631D01*
X111704332Y-123816831D01*
X111704322Y-123816828D01*
X111568995Y-123789910D01*
X111568993Y-123789910D01*
X111431007Y-123789910D01*
X111431005Y-123789910D01*
X111295677Y-123816828D01*
X111295667Y-123816831D01*
X111168195Y-123869631D01*
X111168182Y-123869638D01*
X111053458Y-123946295D01*
X111053454Y-123946298D01*
X110955888Y-124043864D01*
X110955885Y-124043868D01*
X110879228Y-124158592D01*
X110879220Y-124158606D01*
X110872372Y-124175140D01*
X110828529Y-124229542D01*
X110762234Y-124251604D01*
X110694536Y-124234322D01*
X110654711Y-124196574D01*
X110619301Y-124143580D01*
X110619298Y-124143576D01*
X110515423Y-124039701D01*
X110515419Y-124039698D01*
X110393275Y-123958083D01*
X110393266Y-123958078D01*
X110257544Y-123901861D01*
X110257545Y-123901861D01*
X110257542Y-123901860D01*
X110257538Y-123901859D01*
X110257534Y-123901858D01*
X110113459Y-123873200D01*
X110113455Y-123873200D01*
X109966545Y-123873200D01*
X109966540Y-123873200D01*
X109822465Y-123901858D01*
X109822455Y-123901861D01*
X109686733Y-123958078D01*
X109686724Y-123958083D01*
X109564580Y-124039698D01*
X109564576Y-124039701D01*
X109460701Y-124143576D01*
X109460698Y-124143580D01*
X109379083Y-124265724D01*
X109379078Y-124265733D01*
X109322861Y-124401455D01*
X109322858Y-124401465D01*
X109294200Y-124545540D01*
X104150500Y-124545540D01*
X104150500Y-124409448D01*
X104127737Y-124265733D01*
X104122171Y-124230591D01*
X104122169Y-124230586D01*
X104122169Y-124230583D01*
X104110106Y-124193458D01*
X104108109Y-124123617D01*
X104140353Y-124067459D01*
X104898335Y-123309477D01*
X104959656Y-123275994D01*
X105029348Y-123280978D01*
X105066545Y-123302870D01*
X105073493Y-123308804D01*
X105237425Y-123403451D01*
X105417453Y-123461945D01*
X105605709Y-123481732D01*
X105793965Y-123461945D01*
X105973993Y-123403451D01*
X106137925Y-123308804D01*
X106197896Y-123257584D01*
X106994126Y-122461352D01*
X107045348Y-122401381D01*
X107139995Y-122237449D01*
X107198489Y-122057421D01*
X107218276Y-121869165D01*
X107198489Y-121680909D01*
X107139995Y-121500881D01*
X107045348Y-121336949D01*
X107045347Y-121336948D01*
X107045346Y-121336946D01*
X106994144Y-121276996D01*
X106994135Y-121276986D01*
X106994128Y-121276978D01*
X106717149Y-120999999D01*
X106701582Y-120984432D01*
X106618767Y-120901617D01*
X123250000Y-120901617D01*
X123250000Y-121098382D01*
X123280778Y-121292705D01*
X123341581Y-121479835D01*
X123430905Y-121655145D01*
X123456319Y-121690125D01*
X123456320Y-121690125D01*
X124125000Y-121021445D01*
X124125000Y-121049370D01*
X124150556Y-121144745D01*
X124199925Y-121230255D01*
X124269745Y-121300075D01*
X124355255Y-121349444D01*
X124450630Y-121375000D01*
X124478553Y-121375000D01*
X123809873Y-122043677D01*
X123809873Y-122043678D01*
X123844858Y-122069096D01*
X124020164Y-122158418D01*
X124207294Y-122219221D01*
X124401618Y-122250000D01*
X124598382Y-122250000D01*
X124792705Y-122219221D01*
X124979835Y-122158418D01*
X125155143Y-122069095D01*
X125190125Y-122043678D01*
X125190126Y-122043678D01*
X124521448Y-121375000D01*
X124549370Y-121375000D01*
X124644745Y-121349444D01*
X124730255Y-121300075D01*
X124800075Y-121230255D01*
X124849444Y-121144745D01*
X124875000Y-121049370D01*
X124875000Y-121021448D01*
X125543678Y-121690126D01*
X125543678Y-121690125D01*
X125569095Y-121655143D01*
X125658418Y-121479835D01*
X125719221Y-121292705D01*
X125750000Y-121098382D01*
X125750000Y-120901617D01*
X125719221Y-120707294D01*
X125658418Y-120520164D01*
X125569096Y-120344858D01*
X125543678Y-120309873D01*
X125543677Y-120309873D01*
X124875000Y-120978551D01*
X124875000Y-120950630D01*
X124849444Y-120855255D01*
X124800075Y-120769745D01*
X124730255Y-120699925D01*
X124644745Y-120650556D01*
X124549370Y-120625000D01*
X124521447Y-120625000D01*
X125190125Y-119956320D01*
X125190125Y-119956319D01*
X125155145Y-119930905D01*
X124979835Y-119841581D01*
X124792705Y-119780778D01*
X124598382Y-119750000D01*
X124401618Y-119750000D01*
X124207294Y-119780778D01*
X124020161Y-119841582D01*
X123844863Y-119930899D01*
X123844859Y-119930902D01*
X123809873Y-119956320D01*
X123809872Y-119956320D01*
X124478554Y-120625000D01*
X124450630Y-120625000D01*
X124355255Y-120650556D01*
X124269745Y-120699925D01*
X124199925Y-120769745D01*
X124150556Y-120855255D01*
X124125000Y-120950630D01*
X124125000Y-120978552D01*
X123456320Y-120309872D01*
X123456320Y-120309873D01*
X123430902Y-120344859D01*
X123430899Y-120344863D01*
X123341582Y-120520161D01*
X123280778Y-120707294D01*
X123250000Y-120901617D01*
X106618767Y-120901617D01*
X105844357Y-120127208D01*
X105844348Y-120127200D01*
X105844342Y-120127194D01*
X105784371Y-120075972D01*
X105784370Y-120075971D01*
X105620437Y-119981324D01*
X105440412Y-119922831D01*
X105273295Y-119905266D01*
X105252155Y-119903044D01*
X105252154Y-119903044D01*
X105241245Y-119904190D01*
X105231014Y-119905265D01*
X105162285Y-119892696D01*
X105111262Y-119844964D01*
X105094144Y-119777223D01*
X105094732Y-119768996D01*
X105096956Y-119747845D01*
X105077169Y-119559589D01*
X105018675Y-119379561D01*
X104924028Y-119215629D01*
X104924027Y-119215628D01*
X104924026Y-119215626D01*
X104872824Y-119155676D01*
X104872815Y-119155666D01*
X104872808Y-119155658D01*
X104490915Y-118773765D01*
X103844431Y-118127281D01*
X103810946Y-118065958D01*
X103808112Y-118039600D01*
X103808112Y-114048164D01*
X105982233Y-114048164D01*
X105982233Y-114487369D01*
X106022756Y-114924702D01*
X106022756Y-114924703D01*
X106103464Y-115356450D01*
X106223654Y-115778872D01*
X106223659Y-115778887D01*
X106382321Y-116188442D01*
X106578090Y-116581599D01*
X106578093Y-116581605D01*
X106809310Y-116955033D01*
X107073988Y-117305525D01*
X107073995Y-117305533D01*
X107295872Y-117548921D01*
X107295878Y-117548927D01*
X107451060Y-117704106D01*
X107451092Y-117704136D01*
X107694476Y-117926012D01*
X108044966Y-118190689D01*
X108418394Y-118421906D01*
X108418400Y-118421909D01*
X108811557Y-118617678D01*
X109221112Y-118776340D01*
X109221127Y-118776345D01*
X109643549Y-118896534D01*
X109643549Y-118896535D01*
X110075297Y-118977243D01*
X110512631Y-119017767D01*
X110951835Y-119017767D01*
X111389168Y-118977243D01*
X111389169Y-118977243D01*
X111820916Y-118896535D01*
X111820916Y-118896534D01*
X112243348Y-118776343D01*
X112250001Y-118773765D01*
X112250001Y-118569333D01*
X112749999Y-118569333D01*
X113046065Y-118421909D01*
X113046071Y-118421906D01*
X113419499Y-118190689D01*
X113769991Y-117926011D01*
X113770000Y-117926004D01*
X114013354Y-117704158D01*
X114013405Y-117704109D01*
X117704112Y-114013401D01*
X117926012Y-113769989D01*
X118190689Y-113419499D01*
X118421906Y-113046071D01*
X118421909Y-113046065D01*
X118569333Y-112749999D01*
X112749999Y-112749999D01*
X112749999Y-118569333D01*
X112250001Y-118569333D01*
X112250001Y-112749999D01*
X106226234Y-112749999D01*
X106223656Y-112756651D01*
X106103465Y-113179083D01*
X106103464Y-113179083D01*
X106022756Y-113610830D01*
X106022756Y-113610831D01*
X105982233Y-114048164D01*
X103808112Y-114048164D01*
X103808112Y-112451064D01*
X103827797Y-112384025D01*
X103844431Y-112363383D01*
X103957814Y-112250000D01*
X106430666Y-112250000D01*
X106430667Y-112250001D01*
X112250001Y-112250001D01*
X112250001Y-106430666D01*
X111953927Y-106578094D01*
X111580500Y-106809310D01*
X111230008Y-107073988D01*
X111229999Y-107073995D01*
X110986645Y-107295841D01*
X110986594Y-107295890D01*
X107295887Y-110986598D01*
X107073987Y-111230010D01*
X106809310Y-111580500D01*
X106578093Y-111953928D01*
X106578090Y-111953934D01*
X106430666Y-112250000D01*
X103957814Y-112250000D01*
X109981581Y-106226233D01*
X112749999Y-106226233D01*
X112749999Y-112250001D01*
X118773765Y-112250001D01*
X118776343Y-112243348D01*
X118896534Y-111820916D01*
X118896535Y-111820916D01*
X118977243Y-111389169D01*
X118977243Y-111389168D01*
X119017767Y-110951835D01*
X119017767Y-110512630D01*
X118977243Y-110075297D01*
X118977243Y-110075296D01*
X118896535Y-109643549D01*
X118776345Y-109221127D01*
X118776340Y-109221112D01*
X118617678Y-108811557D01*
X118421909Y-108418400D01*
X118421906Y-108418394D01*
X118190689Y-108044966D01*
X117926011Y-107694474D01*
X117926004Y-107694466D01*
X117704127Y-107451078D01*
X117704121Y-107451072D01*
X117548939Y-107295893D01*
X117548907Y-107295863D01*
X117305523Y-107073987D01*
X116955033Y-106809310D01*
X116581605Y-106578093D01*
X116581599Y-106578090D01*
X116188442Y-106382321D01*
X115778887Y-106223659D01*
X115778872Y-106223654D01*
X115356450Y-106103465D01*
X115356450Y-106103464D01*
X114924702Y-106022756D01*
X114487369Y-105982233D01*
X114048165Y-105982233D01*
X113610831Y-106022756D01*
X113610830Y-106022756D01*
X113179083Y-106103464D01*
X113179083Y-106103465D01*
X112756660Y-106223654D01*
X112756637Y-106223661D01*
X112749999Y-106226233D01*
X109981581Y-106226233D01*
X112363383Y-103844431D01*
X112424706Y-103810946D01*
X112451064Y-103808112D01*
X118039600Y-103808112D01*
X118106639Y-103827797D01*
X118127281Y-103844431D01*
X119155642Y-104872791D01*
X119155658Y-104872806D01*
X119215629Y-104924028D01*
X119379561Y-105018675D01*
X119559589Y-105077169D01*
X119747845Y-105096956D01*
X119768981Y-105094734D01*
X119837709Y-105107300D01*
X119888735Y-105155031D01*
X119905855Y-105222770D01*
X119905266Y-105231012D01*
X119903044Y-105252155D01*
X119922831Y-105440411D01*
X119981325Y-105620439D01*
X119990311Y-105636003D01*
X120075973Y-105784373D01*
X120127175Y-105844323D01*
X120127185Y-105844334D01*
X120127192Y-105844342D01*
X120127198Y-105844348D01*
X120127199Y-105844349D01*
X121276962Y-106994111D01*
X121276972Y-106994120D01*
X121276978Y-106994126D01*
X121336949Y-107045348D01*
X121500881Y-107139995D01*
X121680909Y-107198489D01*
X121869165Y-107218276D01*
X122057421Y-107198489D01*
X122237449Y-107139995D01*
X122401381Y-107045348D01*
X122461352Y-106994128D01*
X123257582Y-106197896D01*
X123308804Y-106137925D01*
X123403451Y-105973993D01*
X123461945Y-105793965D01*
X123481732Y-105605709D01*
X123461945Y-105417453D01*
X123403451Y-105237425D01*
X123308804Y-105073493D01*
X123302871Y-105066546D01*
X123274300Y-105002787D01*
X123284735Y-104933701D01*
X123309476Y-104898336D01*
X124067459Y-104140353D01*
X124128780Y-104106870D01*
X124193458Y-104110106D01*
X124230583Y-104122169D01*
X124230586Y-104122169D01*
X124230591Y-104122171D01*
X124313429Y-104135291D01*
X124409449Y-104150500D01*
X124409454Y-104150500D01*
X124590551Y-104150500D01*
X124677259Y-104136765D01*
X124769409Y-104122171D01*
X124941639Y-104066211D01*
X125102994Y-103983996D01*
X125249501Y-103877553D01*
X125377553Y-103749501D01*
X125483996Y-103602994D01*
X125566211Y-103441639D01*
X125622171Y-103269409D01*
X125636765Y-103177259D01*
X125650500Y-103090551D01*
X125650500Y-102909448D01*
X125634019Y-102805397D01*
X125622171Y-102730591D01*
X125594191Y-102644476D01*
X125566212Y-102558363D01*
X125566211Y-102558360D01*
X125537740Y-102502484D01*
X125483996Y-102397006D01*
X125470396Y-102378287D01*
X125377558Y-102250505D01*
X125377554Y-102250500D01*
X125249499Y-102122445D01*
X125249494Y-102122441D01*
X125102997Y-102016006D01*
X125102996Y-102016005D01*
X125102994Y-102016004D01*
X125051300Y-101989664D01*
X124941639Y-101933788D01*
X124941636Y-101933787D01*
X124769410Y-101877829D01*
X124590551Y-101849500D01*
X124590546Y-101849500D01*
X124409454Y-101849500D01*
X124409449Y-101849500D01*
X124230589Y-101877829D01*
X124058363Y-101933787D01*
X124058360Y-101933788D01*
X123897002Y-102016006D01*
X123750505Y-102122441D01*
X123750500Y-102122445D01*
X123622445Y-102250500D01*
X123622441Y-102250505D01*
X123516006Y-102397002D01*
X123433788Y-102558360D01*
X123433787Y-102558363D01*
X123380805Y-102721430D01*
X123341368Y-102779105D01*
X123277009Y-102806304D01*
X123262874Y-102807112D01*
X121102536Y-102807112D01*
X121035497Y-102787427D01*
X121014855Y-102770793D01*
X119986493Y-101742432D01*
X119986476Y-101742416D01*
X119926506Y-101691195D01*
X119762573Y-101596548D01*
X119582548Y-101538055D01*
X119394291Y-101518268D01*
X119206033Y-101538055D01*
X119026008Y-101596548D01*
X118862072Y-101691197D01*
X118802122Y-101742399D01*
X118802096Y-101742423D01*
X118005888Y-102538632D01*
X118005872Y-102538649D01*
X117954653Y-102598617D01*
X117870073Y-102745113D01*
X117819505Y-102793328D01*
X117762686Y-102807112D01*
X112126496Y-102807112D01*
X111999200Y-102841220D01*
X111885074Y-102907112D01*
X111885071Y-102907114D01*
X102907114Y-111885071D01*
X102907112Y-111885074D01*
X102841220Y-111999200D01*
X102807112Y-112126496D01*
X102807112Y-117762686D01*
X102787427Y-117829725D01*
X102745113Y-117870072D01*
X102648239Y-117926004D01*
X102598614Y-117954655D01*
X102538666Y-118005855D01*
X102538640Y-118005879D01*
X101742432Y-118802088D01*
X101742416Y-118802105D01*
X101691195Y-118862075D01*
X101596548Y-119026008D01*
X101538055Y-119206033D01*
X101519816Y-119379561D01*
X101518268Y-119394291D01*
X100500500Y-119394291D01*
X100500500Y-105172351D01*
X100520185Y-105105312D01*
X100572989Y-105059557D01*
X100642147Y-105049613D01*
X100705703Y-105078638D01*
X100729492Y-105106377D01*
X100885685Y-105354956D01*
X100935523Y-105417451D01*
X101097398Y-105620437D01*
X101109812Y-105636003D01*
X101363997Y-105890188D01*
X101645044Y-106114315D01*
X101949418Y-106305566D01*
X102273292Y-106461536D01*
X102528119Y-106550703D01*
X102612580Y-106580258D01*
X102612592Y-106580262D01*
X102963052Y-106660252D01*
X103320260Y-106700499D01*
X103320261Y-106700500D01*
X103320264Y-106700500D01*
X103679739Y-106700500D01*
X103679739Y-106700499D01*
X104036948Y-106660252D01*
X104387408Y-106580262D01*
X104726708Y-106461536D01*
X105050582Y-106305566D01*
X105354956Y-106114315D01*
X105636003Y-105890188D01*
X105890188Y-105636003D01*
X106114315Y-105354956D01*
X106305566Y-105050582D01*
X106461536Y-104726708D01*
X106580262Y-104387408D01*
X106660252Y-104036948D01*
X106700500Y-103679736D01*
X106700500Y-103320264D01*
X106660252Y-102963052D01*
X106580262Y-102612592D01*
X106561286Y-102558363D01*
X106499500Y-102381787D01*
X106461536Y-102273292D01*
X106305566Y-101949418D01*
X106114315Y-101645044D01*
X105890188Y-101363997D01*
X105636003Y-101109812D01*
X105354956Y-100885685D01*
X105106380Y-100729494D01*
X105060089Y-100677159D01*
X105049441Y-100608106D01*
X105077816Y-100544257D01*
X105136206Y-100505885D01*
X105172352Y-100500500D01*
X129375500Y-100500500D01*
X129442539Y-100520185D01*
G37*
%TD.AperFunction*%
%TD*%
M02*
